<svg width="60" height="60" viewBox="0 0 60 60" fill="none" xmlns="http://www.w3.org/2000/svg">
<circle cx="30" cy="30" r="30" fill="#F9EFFF"/>
<path d="M35.3686 18.9984H31.198C30.4444 19.0008 30.4726 20.124 31.198 20.1174H35.3686V20.6916H31.198C30.4486 20.685 30.4762 21.8076 31.198 21.8106H35.3686V22.3974H31.198C30.4486 22.3974 30.4762 23.5194 31.198 23.5164H35.3686V24.0756H31.198C30.4642 24.081 30.4762 25.2042 31.198 25.2078H35.3686V25.7682H31.198C30.4642 25.7658 30.4612 26.8872 31.198 26.8872H35.3686V27.4464H31.198C30.4642 27.4488 30.4612 28.5714 31.198 28.566H35.3686V29.139H31.198C30.4642 29.1324 30.4612 30.2538 31.198 30.258H35.3686V30.816H31.198C30.4642 30.8154 30.4762 31.9392 31.198 31.9356H35.3686V42.831C35.371 44.4912 37.8928 44.4612 37.9 42.831V17.334C37.8928 16.5756 37.27 15.6168 36.2452 15.6138H31.198C30.4444 15.6144 30.4726 16.7376 31.198 16.7328L35.3686 16.7466V17.3046H31.198C30.4456 17.301 30.4738 18.4236 31.198 18.4242H35.3686V18.9984ZM30.9112 38.3148C30.9088 36.3768 28.9 34.2924 26.5 35.6424V28.23L24.9478 16.005C24.9154 15.6816 24.6412 15.6054 24.457 15.6C24.2668 15.6054 23.8858 15.6816 23.8444 16.005L22.3 28.23V35.6424C19.9 34.2924 17.956 36.39 17.9554 38.2998C17.956 39.999 19.264 41.3946 21.034 41.3904C22.8172 41.3946 24.1 39.8304 24.1 38.2998V30.6H24.7V38.2998C24.7 40.0134 26.0272 41.2818 27.502 41.3622C27.4774 42.3018 27.784 43.6422 28.3612 44.1738C29.038 44.7978 29.8438 43.9998 29.5132 43.35C29.194 42.7452 28.8808 42.387 29.1352 41.0664C30.1984 40.5744 30.9088 39.5388 30.9112 38.3148ZM21.1024 39.8394C20.6979 39.8394 20.3098 39.6787 20.0238 39.3926C19.7377 39.1065 19.5769 38.7185 19.5769 38.3139C19.5769 37.9093 19.7377 37.5213 20.0238 37.2352C20.3098 36.9491 20.6979 36.7884 21.1024 36.7884C21.934 36.7932 22.6114 37.4754 22.6174 38.3148C22.6157 38.7169 22.4559 39.1023 22.1724 39.3876C21.8889 39.6728 21.5046 39.8351 21.1024 39.8394ZM26.245 38.3148C26.2464 37.9122 26.4062 37.5264 26.6899 37.2408C26.9735 36.9552 27.3581 36.7926 27.7606 36.7884C28.1633 36.792 28.5483 36.9544 28.8319 37.2402C29.1156 37.5259 29.275 37.9121 29.2756 38.3148C29.275 38.7173 29.1155 39.1033 28.8318 39.3888C28.5481 39.6743 28.1631 39.8362 27.7606 39.8394C27.3582 39.8357 26.9735 39.6737 26.6898 39.3883C26.4061 39.1029 26.2463 38.7172 26.245 38.3148Z" fill="#7210FF"/>
</svg>
