<svg width="25" height="24" viewBox="0 0 25 24" fill="none" xmlns="http://www.w3.org/2000/svg">
<path fill-rule="evenodd" clip-rule="evenodd" d="M8.435 2H16.816C19.905 2 21.625 3.78 21.625 6.83V17.16C21.625 20.26 19.905 22 16.816 22H8.435C5.395 22 3.625 20.26 3.625 17.16V6.83C3.625 3.78 5.395 2 8.435 2ZM8.705 6.66V6.65H11.694C12.125 6.65 12.475 7 12.475 7.429C12.475 7.87 12.125 8.22 11.694 8.22H8.705C8.274 8.22 7.925 7.87 7.925 7.44C7.925 7.01 8.274 6.66 8.705 6.66ZM8.705 12.74H16.545C16.975 12.74 17.325 12.39 17.325 11.96C17.325 11.53 16.975 11.179 16.545 11.179H8.705C8.274 11.179 7.925 11.53 7.925 11.96C7.925 12.39 8.274 12.74 8.705 12.74ZM8.705 17.31H16.545C16.944 17.27 17.245 16.929 17.245 16.53C17.245 16.12 16.944 15.78 16.545 15.74H8.705C8.405 15.71 8.115 15.85 7.955 16.11C7.795 16.36 7.795 16.69 7.955 16.95C8.115 17.2 8.405 17.35 8.705 17.31Z" fill="#000B33"/>
</svg>
