<svg width="25" height="24" viewBox="0 0 25 24" fill="none" xmlns="http://www.w3.org/2000/svg">
<path d="M9.75 5.25C9.55109 5.25 9.36032 5.32902 9.21967 5.46967C9.07902 5.61032 9 5.80109 9 6C9 6.19891 9.07902 6.38968 9.21967 6.53033C9.36032 6.67098 9.55109 6.75 9.75 6.75H15.75C15.9489 6.75 16.1397 6.67098 16.2803 6.53033C16.421 6.38968 16.5 6.19891 16.5 6C16.5 5.80109 16.421 5.61032 16.2803 5.46967C16.1397 5.32902 15.9489 5.25 15.75 5.25H9.75Z" fill="#9E9E9E"/>
<path fill-rule="evenodd" clip-rule="evenodd" d="M12.693 1.25C10.62 1.25 8.987 1.25 7.711 1.423C6.401 1.601 5.356 1.975 4.535 2.805C3.715 3.634 3.347 4.687 3.171 6.007C3 7.296 3 8.945 3 11.041V16.139C3 17.647 3 18.84 3.096 19.739C3.191 20.627 3.394 21.428 3.976 21.964C4.442 22.394 5.032 22.664 5.662 22.737C6.449 22.827 7.184 22.451 7.909 21.937C8.642 21.419 9.531 20.632 10.653 19.64L10.689 19.608C11.209 19.148 11.561 18.838 11.855 18.622C12.139 18.415 12.312 18.34 12.458 18.31C12.6508 18.272 12.8492 18.272 13.042 18.31C13.188 18.34 13.362 18.415 13.645 18.622C13.939 18.837 14.291 19.148 14.811 19.608L14.848 19.64C15.969 20.632 16.858 21.419 17.591 21.938C18.316 22.451 19.051 22.827 19.838 22.737C20.4677 22.6646 21.0581 22.3939 21.524 21.964C22.105 21.428 22.309 20.627 22.404 19.739C22.5 18.84 22.5 17.647 22.5 16.139V11.041C22.5 8.945 22.5 7.295 22.329 6.007C22.153 4.687 21.785 3.634 20.965 2.805C20.144 1.975 19.099 1.601 17.789 1.423C16.513 1.25 14.88 1.25 12.807 1.25H12.693ZM5.6 3.86C6.097 3.358 6.772 3.065 7.912 2.91C9.075 2.752 10.606 2.75 12.749 2.75C14.892 2.75 16.423 2.752 17.586 2.91C18.726 3.065 19.401 3.358 19.898 3.86C20.396 4.363 20.687 5.048 20.841 6.205C20.997 7.383 20.999 8.932 20.999 11.098V16.091C20.999 17.657 20.998 18.771 20.912 19.579C20.822 20.409 20.659 20.72 20.507 20.861C20.273 21.076 19.979 21.211 19.667 21.246C19.467 21.269 19.133 21.192 18.457 20.714C17.799 20.247 16.97 19.516 15.804 18.484L15.778 18.461C15.29 18.03 14.886 17.673 14.529 17.411C14.156 17.139 13.78 16.929 13.337 16.84C12.9489 16.7619 12.5491 16.7619 12.161 16.84C11.718 16.93 11.341 17.139 10.969 17.412C10.612 17.672 10.208 18.03 9.72 18.461L9.694 18.484C8.528 19.516 7.699 20.247 7.041 20.714C6.365 21.192 6.031 21.269 5.831 21.246C5.51726 21.21 5.22309 21.0752 4.991 20.861C4.839 20.72 4.675 20.409 4.587 19.579C4.5 18.77 4.499 17.657 4.499 16.091V11.097C4.499 8.932 4.501 7.383 4.657 6.205C4.811 5.048 5.102 4.363 5.6 3.86Z" fill="#9E9E9E"/>
</svg>
