<svg width="20" height="17" viewBox="0 0 20 17" fill="none" xmlns="http://www.w3.org/2000/svg">
<path fill-rule="evenodd" clip-rule="evenodd" d="M5.474 3.642C5.474 3.22939 5.55527 2.82081 5.71318 2.43961C5.87108 2.0584 6.10251 1.71203 6.39428 1.42027C6.98351 0.831031 7.78269 0.5 8.616 0.5H11.384C12.2173 0.5 13.0165 0.831031 13.6057 1.42027C14.195 2.00951 14.526 2.80869 14.526 3.642C14.5262 3.64914 14.5289 3.65598 14.5337 3.66129C14.5384 3.66661 14.5449 3.67005 14.552 3.671L16.782 3.851C17.781 3.933 18.602 4.671 18.789 5.656C19.2644 8.16848 19.2996 10.7445 18.893 13.269L18.796 13.873C18.707 14.4264 18.435 14.9339 18.0235 15.3145C17.6119 15.695 17.0847 15.9265 16.526 15.972L14.583 16.129C11.5327 16.3768 8.46732 16.3768 5.417 16.129L3.474 15.972C2.91521 15.9265 2.38783 15.6948 1.97628 15.3141C1.56473 14.9334 1.2928 14.4256 1.204 13.872L1.10701 13.269C0.700005 10.744 0.736005 8.169 1.211 5.656C1.30183 5.17702 1.54739 4.7411 1.90997 4.41519C2.27254 4.08929 2.73208 3.89143 3.218 3.852L5.448 3.671C5.45526 3.67049 5.46202 3.66717 5.46687 3.66176C5.47172 3.65635 5.47428 3.64926 5.474 3.642ZM10 5.25C9.00544 5.25 8.05162 5.64509 7.34835 6.34835C6.64509 7.05161 6.25 8.00544 6.25 9C6.25 9.99456 6.64509 10.9484 7.34835 11.6517C8.05162 12.3549 9.00544 12.75 10 12.75C10.9946 12.75 11.9484 12.3549 12.6517 11.6517C13.3549 10.9484 13.75 9.99456 13.75 9C13.75 8.00544 13.3549 7.05161 12.6517 6.34835C11.9484 5.64509 10.9946 5.25 10 5.25Z" fill="#0091BE"/>
</svg>
