<svg width="205" height="200" viewBox="0 0 205 200" fill="none" xmlns="http://www.w3.org/2000/svg">
<ellipse cx="104.97" cy="101.25" rx="77.8012" ry="78.75" fill="url(#paint0_linear_2741_3895)"/>
<ellipse cx="196.356" cy="31.25" rx="8.64458" ry="8.75" fill="url(#paint1_linear_2741_3895)"/>
<ellipse cx="20.9939" cy="11.25" rx="11.1145" ry="11.25" fill="url(#paint2_linear_2741_3895)"/>
<ellipse cx="9.8797" cy="147.5" rx="4.93976" ry="5" fill="url(#paint3_linear_2741_3895)"/>
<ellipse cx="180.301" cy="177.5" rx="2.46988" ry="2.5" fill="url(#paint4_linear_2741_3895)"/>
<ellipse cx="116.085" cy="5" rx="2.46988" ry="2.5" fill="url(#paint5_linear_2741_3895)"/>
<ellipse cx="67.9216" cy="196.25" rx="3.70482" ry="3.75" fill="url(#paint6_linear_2741_3895)"/>
<ellipse cx="134.608" cy="191.25" rx="1.23494" ry="1.25" fill="url(#paint7_linear_2741_3895)"/>
<ellipse cx="187.711" cy="122.5" rx="2.46988" ry="2.5" fill="url(#paint8_linear_2741_3895)"/>
<ellipse cx="1.23494" cy="83.75" rx="1.23494" ry="1.25" fill="url(#paint9_linear_2741_3895)"/>
<path d="M118.364 78.6415V74.4165C118.364 73.3061 117.444 72.3853 116.333 72.3853C115.223 72.3853 114.302 73.3061 114.302 74.4165V78.479H96.6977V74.4165C96.6977 73.3061 95.7769 72.3853 94.6665 72.3853C93.5561 72.3853 92.6352 73.3061 92.6352 74.4165V78.6415C85.3227 79.3186 81.7748 83.679 81.2331 90.1519C81.179 90.9373 81.829 91.5873 82.5873 91.5873H128.412C129.198 91.5873 129.848 90.9103 129.766 90.1519C129.225 83.679 125.677 79.3186 118.364 78.6415Z" fill="white"/>
<path d="M127.167 95.6499H83.8333C82.3437 95.6499 81.125 96.8687 81.125 98.3582V115.042C81.125 123.167 85.1875 128.583 94.6667 128.583H108.019C109.888 128.583 111.188 126.769 110.592 125.008C110.05 123.437 109.59 121.704 109.59 120.458C109.59 112.252 116.279 105.562 124.485 105.562C125.271 105.562 126.056 105.617 126.815 105.752C128.44 105.996 129.902 104.723 129.902 103.098V98.3853C129.875 96.8687 128.656 95.6499 127.167 95.6499ZM97.9438 116.964C97.4292 117.452 96.725 117.75 96.0208 117.75C95.6687 117.75 95.3167 117.669 94.9917 117.533C94.6667 117.398 94.3687 117.208 94.0979 116.964C93.6104 116.45 93.3125 115.773 93.3125 115.042C93.3125 114.689 93.3937 114.337 93.5292 114.012C93.6646 113.66 93.8542 113.389 94.0979 113.119C94.3687 112.875 94.6667 112.685 94.9917 112.55C95.9667 112.117 97.1854 112.36 97.9438 113.119C98.1875 113.389 98.3771 113.66 98.5125 114.012C98.6479 114.337 98.7292 114.689 98.7292 115.042C98.7292 115.773 98.4312 116.45 97.9438 116.964ZM97.9438 107.485C97.4292 107.973 96.725 108.271 96.0208 108.271C95.6687 108.271 95.3167 108.217 94.9917 108.054C94.6667 107.919 94.3687 107.729 94.0979 107.485C93.6104 106.971 93.3125 106.267 93.3125 105.562C93.3125 105.21 93.3937 104.858 93.5292 104.533C93.6646 104.208 93.8542 103.91 94.0979 103.639C94.3687 103.396 94.6667 103.206 94.9917 103.071C95.9667 102.664 97.1854 102.881 97.9438 103.639C98.1875 103.91 98.3771 104.208 98.5125 104.533C98.6479 104.858 98.7292 105.21 98.7292 105.562C98.7292 106.267 98.4312 106.971 97.9438 107.485ZM107.992 106.592C107.856 106.917 107.667 107.214 107.423 107.485C107.152 107.729 106.854 107.919 106.529 108.054C106.204 108.217 105.852 108.271 105.5 108.271C104.796 108.271 104.092 107.973 103.577 107.485C103.333 107.214 103.144 106.917 103.008 106.592C102.873 106.267 102.792 105.914 102.792 105.562C102.792 104.858 103.09 104.154 103.577 103.639C104.335 102.881 105.527 102.637 106.529 103.071C106.854 103.206 107.152 103.396 107.423 103.639C107.91 104.154 108.208 104.858 108.208 105.562C108.208 105.914 108.154 106.267 107.992 106.592Z" fill="white"/>
<path d="M124.458 109.625C118.473 109.625 113.625 114.473 113.625 120.458C113.625 126.444 118.473 131.292 124.458 131.292C130.444 131.292 135.292 126.444 135.292 120.458C135.292 114.473 130.444 109.625 124.458 109.625ZM128.792 124.9C128.385 125.306 127.871 125.496 127.356 125.496C126.842 125.496 126.327 125.306 125.921 124.9L124.485 123.465L122.996 124.954C122.59 125.36 122.075 125.55 121.56 125.55C121.046 125.55 120.531 125.36 120.125 124.954C119.34 124.169 119.34 122.869 120.125 122.083L121.615 120.594L120.179 119.158C119.394 118.373 119.394 117.073 120.179 116.287C120.965 115.502 122.265 115.502 123.05 116.287L124.485 117.75L125.84 116.396C126.625 115.61 127.925 115.61 128.71 116.396C129.496 117.181 129.496 118.481 128.71 119.267L127.356 120.621L128.792 122.056C129.577 122.842 129.577 124.115 128.792 124.9Z" fill="white"/>
<defs>
<linearGradient id="paint0_linear_2741_3895" x1="27.1685" y1="101.25" x2="182.771" y2="101.25" gradientUnits="userSpaceOnUse">
<stop stop-color="#FF512F"/>
<stop offset="1" stop-color="#DD2476"/>
</linearGradient>
<linearGradient id="paint1_linear_2741_3895" x1="187.711" y1="31.25" x2="205" y2="31.25" gradientUnits="userSpaceOnUse">
<stop stop-color="#FF512F"/>
<stop offset="1" stop-color="#DD2476"/>
</linearGradient>
<linearGradient id="paint2_linear_2741_3895" x1="9.87939" y1="11.25" x2="32.1083" y2="11.25" gradientUnits="userSpaceOnUse">
<stop stop-color="#FF512F"/>
<stop offset="1" stop-color="#DD2476"/>
</linearGradient>
<linearGradient id="paint3_linear_2741_3895" x1="4.93994" y1="147.5" x2="14.8195" y2="147.5" gradientUnits="userSpaceOnUse">
<stop stop-color="#FF512F"/>
<stop offset="1" stop-color="#DD2476"/>
</linearGradient>
<linearGradient id="paint4_linear_2741_3895" x1="177.832" y1="177.5" x2="182.771" y2="177.5" gradientUnits="userSpaceOnUse">
<stop stop-color="#FF512F"/>
<stop offset="1" stop-color="#DD2476"/>
</linearGradient>
<linearGradient id="paint5_linear_2741_3895" x1="113.615" y1="5" x2="118.555" y2="5" gradientUnits="userSpaceOnUse">
<stop stop-color="#FF512F"/>
<stop offset="1" stop-color="#DD2476"/>
</linearGradient>
<linearGradient id="paint6_linear_2741_3895" x1="64.2168" y1="196.25" x2="71.6264" y2="196.25" gradientUnits="userSpaceOnUse">
<stop stop-color="#FF512F"/>
<stop offset="1" stop-color="#DD2476"/>
</linearGradient>
<linearGradient id="paint7_linear_2741_3895" x1="133.374" y1="191.25" x2="135.843" y2="191.25" gradientUnits="userSpaceOnUse">
<stop stop-color="#FF512F"/>
<stop offset="1" stop-color="#DD2476"/>
</linearGradient>
<linearGradient id="paint8_linear_2741_3895" x1="185.241" y1="122.5" x2="190.181" y2="122.5" gradientUnits="userSpaceOnUse">
<stop stop-color="#FF512F"/>
<stop offset="1" stop-color="#DD2476"/>
</linearGradient>
<linearGradient id="paint9_linear_2741_3895" x1="0" y1="83.75" x2="2.46988" y2="83.75" gradientUnits="userSpaceOnUse">
<stop stop-color="#FF512F"/>
<stop offset="1" stop-color="#DD2476"/>
</linearGradient>
</defs>
</svg>
