<svg width="60" height="60" viewBox="0 0 60 60" fill="none" xmlns="http://www.w3.org/2000/svg">
<circle cx="30" cy="30" r="30" fill="#F3FFF6"/>
<g clip-path="url(#clip0_2459_877)">
<path d="M16.0687 25.1857C16.5143 25.3345 17.2994 25.6658 18.047 26.4134C18.7946 27.161 19.1259 27.946 19.2748 28.3917C19.3819 28.7173 19.6936 28.9947 20.1095 28.9948C20.5253 28.9947 20.837 28.7173 20.9442 28.3917C21.093 27.9461 21.4244 27.161 22.172 26.4134C22.9196 25.6658 23.7047 25.3345 24.1503 25.1857C24.4758 25.0785 24.7532 24.7668 24.7534 24.3509C24.7532 23.9351 24.4758 23.6234 24.1503 23.5162C23.7046 23.3674 22.9196 23.036 22.172 22.2884C21.4244 21.5408 21.093 20.7559 20.9442 20.3101C20.837 19.9846 20.5253 19.7072 20.1095 19.707C19.6936 19.7072 19.3819 19.9846 19.2748 20.3101C19.1259 20.7558 18.7946 21.5408 18.047 22.2884C17.2994 23.036 16.5143 23.3674 16.0687 23.5162C15.7431 23.6234 15.4658 23.9351 15.4656 24.3509C15.4658 24.7668 15.7431 25.0784 16.0687 25.1857Z" fill="#4FBF67"/>
<path d="M29.5967 24.3515C29.5967 24.8369 29.9902 25.2305 30.4756 25.2305H31.4795V26.2343C31.4795 26.7197 31.873 27.1132 32.3584 27.1132C32.8438 27.1132 33.2373 26.7197 33.2373 26.2343V25.2305H34.2412C34.7266 25.2305 35.1201 24.8369 35.1201 24.3515C35.1201 23.8662 34.7266 23.4726 34.2412 23.4726H33.2373V22.4688C33.2373 21.9834 32.8438 21.5898 32.3584 21.5898C31.873 21.5898 31.4795 21.9834 31.4795 22.4688V23.4726H30.4756C29.9902 23.4726 29.5967 23.8662 29.5967 24.3515Z" fill="#4FBF67"/>
<path d="M25.7686 18.6406H26.7724V19.6445C26.7724 20.1299 27.166 20.5234 27.6513 20.5234C28.1367 20.5234 28.5303 20.1299 28.5303 19.6445V18.6406H29.5342C30.0196 18.6406 30.4131 18.2471 30.4131 17.7617C30.4131 17.2763 30.0196 16.8828 29.5342 16.8828H28.5303V15.8789C28.5303 15.3935 28.1367 15 27.6513 15C27.166 15 26.7724 15.3935 26.7724 15.8789V16.8828H25.7686C25.2832 16.8828 24.8896 17.2763 24.8896 17.7617C24.8896 18.2471 25.2832 18.6406 25.7686 18.6406Z" fill="#4FBF67"/>
<path d="M30.2012 41.4987C30.2325 41.4948 31.1214 41.3785 31.9541 40.8173C31.9857 40.796 32.0153 40.7732 32.0459 40.7512L33.6438 32.7617H34.2412C34.7266 32.7617 35.1201 32.3682 35.1201 31.8828C35.1201 31.3974 34.7266 31.0039 34.2412 31.0039H17.2959C16.8105 31.0039 16.417 31.3974 16.417 31.8828C16.417 32.3682 16.8105 32.7617 17.2959 32.7617H17.8934L19.4713 40.6515C19.5624 40.5941 19.6481 40.5259 19.7267 40.4474L25.1472 35.027C25.4904 34.6837 26.0469 34.6837 26.3901 35.027C26.7334 35.3702 26.7334 35.9267 26.3901 36.2699L20.9696 41.6904C20.6905 41.9695 20.2973 42.2436 19.826 42.4249L20.1997 44.2935C20.2818 44.7043 20.6425 45 21.0615 45H27.9889C27.906 44.7648 27.8552 44.5139 27.8421 44.2525C27.7722 42.8516 28.8076 41.6444 30.2012 41.4987Z" fill="#4FBF67"/>
<path d="M18.135 40.764C17.5874 40.5372 17.2335 40.0075 17.2335 39.4139C17.2335 39.2369 17.2666 39.065 17.3294 38.9049L16.8877 36.6965L16.3987 37.1856C15.8034 37.7808 15.4756 38.5722 15.4756 39.4146C15.4756 40.721 16.2555 41.8881 17.4623 42.388C18.3398 42.7515 19.1608 42.6808 19.8259 42.4249L19.4713 40.6515C19.0762 40.9008 18.5802 40.9483 18.135 40.764Z" fill="#4FBF67"/>
<path d="M40.7687 31.1895V15.8789C40.7687 15.3935 40.3752 15 39.8898 15C39.4044 15 39.0109 15.3935 39.0109 15.8789V31.1895C39.2983 31.1498 39.5916 31.1289 39.8898 31.1289C40.1879 31.1289 40.4812 31.1498 40.7687 31.1895Z" fill="#4FBF67"/>
<path d="M39.8897 32.8867C37.3287 32.8867 35.2452 34.9703 35.2452 37.5313C35.2452 42.704 30.5117 43.2333 30.3882 43.2466C29.9221 43.2931 29.5744 43.6971 29.5978 44.1649C29.6212 44.6327 30.0072 45 30.4756 45H37.0654C43.6841 45 44.5342 40.0173 44.5342 37.5312C44.5342 34.9702 42.4507 32.8867 39.8897 32.8867Z" fill="#4FBF67"/>
</g>
<defs>
<clipPath id="clip0_2459_877">
<rect width="30" height="30" fill="white" transform="translate(15 15)"/>
</clipPath>
</defs>
</svg>
