<svg width="205" height="200" viewBox="0 0 205 200" fill="none" xmlns="http://www.w3.org/2000/svg">
<ellipse cx="104.97" cy="101.25" rx="77.8012" ry="78.75" fill="url(#paint0_linear_2741_3756)"/>
<ellipse cx="196.356" cy="31.25" rx="8.64458" ry="8.75" fill="url(#paint1_linear_2741_3756)"/>
<ellipse cx="20.9939" cy="11.25" rx="11.1145" ry="11.25" fill="url(#paint2_linear_2741_3756)"/>
<ellipse cx="9.8797" cy="147.5" rx="4.93976" ry="5" fill="url(#paint3_linear_2741_3756)"/>
<ellipse cx="180.301" cy="177.5" rx="2.46988" ry="2.5" fill="url(#paint4_linear_2741_3756)"/>
<ellipse cx="116.085" cy="5" rx="2.46988" ry="2.5" fill="url(#paint5_linear_2741_3756)"/>
<ellipse cx="67.9216" cy="196.25" rx="3.70482" ry="3.75" fill="url(#paint6_linear_2741_3756)"/>
<ellipse cx="134.608" cy="191.25" rx="1.23494" ry="1.25" fill="url(#paint7_linear_2741_3756)"/>
<ellipse cx="187.711" cy="122.5" rx="2.46988" ry="2.5" fill="url(#paint8_linear_2741_3756)"/>
<ellipse cx="1.23494" cy="83.75" rx="1.23494" ry="1.25" fill="url(#paint9_linear_2741_3756)"/>
<path d="M118.364 78.6415V74.4165C118.364 73.3061 117.444 72.3853 116.333 72.3853C115.223 72.3853 114.302 73.3061 114.302 74.4165V78.479H96.6977V74.4165C96.6977 73.3061 95.7769 72.3853 94.6665 72.3853C93.5561 72.3853 92.6352 73.3061 92.6352 74.4165V78.6415C85.3227 79.3186 81.7748 83.679 81.2331 90.1519C81.179 90.9373 81.829 91.5873 82.5873 91.5873H128.412C129.198 91.5873 129.848 90.9103 129.766 90.1519C129.225 83.679 125.677 79.3186 118.364 78.6415Z" fill="white"/>
<path d="M124.458 109.625C118.473 109.625 113.625 114.473 113.625 120.458C113.625 122.49 114.194 124.412 115.196 126.038C117.065 129.179 120.504 131.292 124.458 131.292C128.413 131.292 131.852 129.179 133.721 126.038C134.723 124.412 135.292 122.49 135.292 120.458C135.292 114.473 130.444 109.625 124.458 109.625ZM130.065 119.294L124.296 124.629C123.917 124.981 123.402 125.171 122.915 125.171C122.4 125.171 121.885 124.981 121.479 124.575L118.798 121.894C118.012 121.108 118.012 119.808 118.798 119.023C119.583 118.237 120.883 118.237 121.669 119.023L122.969 120.323L127.302 116.315C128.115 115.556 129.415 115.61 130.173 116.423C130.931 117.235 130.877 118.508 130.065 119.294Z" fill="white"/>
<path d="M127.167 95.6499H83.8333C82.3437 95.6499 81.125 96.8687 81.125 98.3582V115.042C81.125 123.167 85.1875 128.583 94.6667 128.583H108.019C109.888 128.583 111.188 126.769 110.592 125.008C110.05 123.437 109.59 121.704 109.59 120.458C109.59 112.252 116.279 105.562 124.485 105.562C125.271 105.562 126.056 105.617 126.815 105.752C128.44 105.996 129.902 104.723 129.902 103.098V98.3853C129.875 96.8687 128.656 95.6499 127.167 95.6499ZM97.9438 118.319C97.4292 118.806 96.725 119.104 96.0208 119.104C95.3167 119.104 94.6125 118.806 94.0979 118.319C93.6104 117.804 93.3125 117.1 93.3125 116.396C93.3125 115.692 93.6104 114.987 94.0979 114.473C94.3687 114.229 94.6396 114.039 94.9917 113.904C95.9937 113.471 97.1854 113.714 97.9438 114.473C98.4312 114.987 98.7292 115.692 98.7292 116.396C98.7292 117.1 98.4312 117.804 97.9438 118.319ZM97.9438 108.839C97.8083 108.948 97.6729 109.056 97.5375 109.164C97.375 109.273 97.2125 109.354 97.05 109.408C96.8875 109.489 96.725 109.544 96.5625 109.571C96.3729 109.598 96.1833 109.625 96.0208 109.625C95.3167 109.625 94.6125 109.327 94.0979 108.839C93.6104 108.325 93.3125 107.621 93.3125 106.917C93.3125 106.212 93.6104 105.508 94.0979 104.994C94.7208 104.371 95.6687 104.073 96.5625 104.262C96.725 104.289 96.8875 104.344 97.05 104.425C97.2125 104.479 97.375 104.56 97.5375 104.669C97.6729 104.777 97.8083 104.885 97.9438 104.994C98.4312 105.508 98.7292 106.212 98.7292 106.917C98.7292 107.621 98.4312 108.325 97.9438 108.839ZM107.423 108.839C106.908 109.327 106.204 109.625 105.5 109.625C104.796 109.625 104.092 109.327 103.577 108.839C103.09 108.325 102.792 107.621 102.792 106.917C102.792 106.212 103.09 105.508 103.577 104.994C104.606 103.992 106.421 103.992 107.423 104.994C107.91 105.508 108.208 106.212 108.208 106.917C108.208 107.621 107.91 108.325 107.423 108.839Z" fill="white"/>
<defs>
<linearGradient id="paint0_linear_2741_3756" x1="27.1685" y1="101.25" x2="182.771" y2="101.25" gradientUnits="userSpaceOnUse">
<stop stop-color="#ADD100"/>
<stop offset="1" stop-color="#7B920A"/>
</linearGradient>
<linearGradient id="paint1_linear_2741_3756" x1="187.711" y1="31.25" x2="205" y2="31.25" gradientUnits="userSpaceOnUse">
<stop stop-color="#ADD100"/>
<stop offset="1" stop-color="#7B920A"/>
</linearGradient>
<linearGradient id="paint2_linear_2741_3756" x1="9.87939" y1="11.25" x2="32.1083" y2="11.25" gradientUnits="userSpaceOnUse">
<stop stop-color="#ADD100"/>
<stop offset="1" stop-color="#7B920A"/>
</linearGradient>
<linearGradient id="paint3_linear_2741_3756" x1="4.93994" y1="147.5" x2="14.8195" y2="147.5" gradientUnits="userSpaceOnUse">
<stop stop-color="#ADD100"/>
<stop offset="1" stop-color="#7B920A"/>
</linearGradient>
<linearGradient id="paint4_linear_2741_3756" x1="177.832" y1="177.5" x2="182.771" y2="177.5" gradientUnits="userSpaceOnUse">
<stop stop-color="#ADD100"/>
<stop offset="1" stop-color="#7B920A"/>
</linearGradient>
<linearGradient id="paint5_linear_2741_3756" x1="113.615" y1="5" x2="118.555" y2="5" gradientUnits="userSpaceOnUse">
<stop stop-color="#ADD100"/>
<stop offset="1" stop-color="#7B920A"/>
</linearGradient>
<linearGradient id="paint6_linear_2741_3756" x1="64.2168" y1="196.25" x2="71.6264" y2="196.25" gradientUnits="userSpaceOnUse">
<stop stop-color="#ADD100"/>
<stop offset="1" stop-color="#7B920A"/>
</linearGradient>
<linearGradient id="paint7_linear_2741_3756" x1="133.374" y1="191.25" x2="135.843" y2="191.25" gradientUnits="userSpaceOnUse">
<stop stop-color="#ADD100"/>
<stop offset="1" stop-color="#7B920A"/>
</linearGradient>
<linearGradient id="paint8_linear_2741_3756" x1="185.241" y1="122.5" x2="190.181" y2="122.5" gradientUnits="userSpaceOnUse">
<stop stop-color="#ADD100"/>
<stop offset="1" stop-color="#7B920A"/>
</linearGradient>
<linearGradient id="paint9_linear_2741_3756" x1="0" y1="83.75" x2="2.46988" y2="83.75" gradientUnits="userSpaceOnUse">
<stop stop-color="#ADD100"/>
<stop offset="1" stop-color="#7B920A"/>
</linearGradient>
</defs>
</svg>
