<svg width="51" height="50" viewBox="0 0 51 50" fill="none" xmlns="http://www.w3.org/2000/svg">
<path d="M48.9203 21.7823C48.9192 21.7812 48.9181 21.78 48.9169 21.7789L28.7228 1.58552C27.862 0.724383 26.7176 0.25 25.5003 0.25C24.283 0.25 23.1386 0.724005 22.2774 1.58515L2.09388 21.7683C2.08709 21.7751 2.08029 21.7823 2.07349 21.7891C0.305883 23.5669 0.308905 26.4514 2.08218 28.2246C2.89233 29.0352 3.96233 29.5046 5.10637 29.5537C5.15282 29.5583 5.19966 29.5605 5.24687 29.5605H6.05174V44.4216C6.05174 47.3624 8.44442 49.7551 11.3859 49.7551H19.2865C20.0872 49.7551 20.7368 49.1058 20.7368 48.3047V36.6536C20.7368 35.3117 21.8284 34.2201 23.1703 34.2201H27.8303C29.1722 34.2201 30.2638 35.3117 30.2638 36.6536V48.3047C30.2638 49.1058 30.913 49.7551 31.7141 49.7551H39.6147C42.5562 49.7551 44.9489 47.3624 44.9489 44.4216V29.5605H45.6952C46.9121 29.5605 48.0565 29.0865 48.9181 28.2254C50.6932 26.4491 50.694 23.5597 48.9203 21.7823Z" fill="#7210FF"/>
</svg>
