<svg width="60" height="60" viewBox="0 0 60 60" fill="none" xmlns="http://www.w3.org/2000/svg">
<circle cx="30" cy="30" r="30" fill="#FFF7EE"/>
<path d="M42.3708 27.8391C42.3247 27.7795 42.2803 27.7218 42.2379 27.666C41.7091 26.9691 41.2816 26.1849 40.9044 25.4929C40.5346 24.8144 40.1853 24.1735 39.804 23.7303C38.9531 22.7416 38.1525 22.261 37.3564 22.261H33.4254C33.4216 22.2611 33.0461 22.2656 32.5941 22.2656H31.9531C31.4949 22.2656 31.0954 22.5767 30.9815 23.0221L30.9761 23.0429V31.7225L30.9771 31.7404C30.9776 31.7456 30.9873 31.87 30.8893 31.9769C30.7812 32.0951 30.5736 32.1575 30.2889 32.1575H14.9773C14.4384 32.1574 14 32.5699 14 33.0768V36.2371C14 36.7441 14.4384 37.1565 14.9773 37.1565H18.3401C18.5163 39.1697 20.2105 40.7544 22.2689 40.7544C24.3273 40.7544 26.0216 39.1697 26.1977 37.1565H31.8258C32.002 39.1697 33.6962 40.7544 35.7546 40.7544C37.813 40.7544 39.5073 39.1697 39.6834 37.1565H42.2413C43.211 37.1565 43.9999 36.3677 43.9999 35.3981V32.3807C44 29.9522 43.0196 28.6805 42.3708 27.8391ZM37.2255 36.8101C37.2255 37.6209 36.5657 38.2805 35.7546 38.2805C34.9438 38.2805 34.2842 37.6209 34.2842 36.8101C34.2842 35.9993 34.9438 35.3396 35.7546 35.3396C36.5657 35.3396 37.2255 35.9992 37.2255 36.8101ZM40.6077 29.1544C40.577 29.2051 40.4892 29.227 40.3559 29.2185L33.5978 29.2181V23.7056H36.5196C37.3057 23.7056 37.8628 24.0478 38.4424 24.8867C38.8279 25.4447 39.8485 27.2015 39.9006 27.2912C39.9368 27.3612 39.9741 27.4323 40.0117 27.5041C40.3061 28.0669 40.7512 28.9172 40.6077 29.1544ZM22.2689 35.3396C23.08 35.3396 23.7398 35.9993 23.7398 36.8101C23.7398 37.6209 23.08 38.2805 22.2689 38.2805C21.4581 38.2805 20.7985 37.6209 20.7985 36.8101C20.7985 35.9992 21.4581 35.3396 22.2689 35.3396Z" fill="#FF981F"/>
<path d="M16.0599 30.7593H20.6926C21.1622 30.7593 21.5442 30.3773 21.5442 29.9077V26.5013C21.5442 26.0317 21.1622 25.6497 20.6926 25.6497H16.0599C15.5902 25.6497 15.2083 26.0317 15.2083 26.5013V29.9077C15.2083 30.3773 15.5903 30.7593 16.0599 30.7593Z" fill="#FF981F"/>
<path d="M23.7583 30.7593H28.3911C28.8607 30.7593 29.2427 30.3773 29.2427 29.9077V26.5013C29.2427 26.0317 28.8607 25.6497 28.3911 25.6497H23.7583C23.2887 25.6497 22.9067 26.0317 22.9067 26.5013V29.9077C22.9067 30.3773 23.2888 30.7593 23.7583 30.7593Z" fill="#FF981F"/>
<path d="M16.0599 24.3552H20.6926C21.1622 24.3552 21.5442 23.9733 21.5442 23.5036V20.0972C21.5442 19.6276 21.1622 19.2456 20.6926 19.2456H16.0599C15.5902 19.2456 15.2083 19.6276 15.2083 20.0972V23.5036C15.2083 23.9733 15.5903 24.3552 16.0599 24.3552Z" fill="#FF981F"/>
<path d="M23.7583 24.3552H28.3911C28.8607 24.3552 29.2427 23.9733 29.2427 23.5036V20.0972C29.2427 19.6276 28.8607 19.2456 28.3911 19.2456H23.7583C23.2887 19.2456 22.9067 19.6276 22.9067 20.0972V23.5036C22.9067 23.9733 23.2888 24.3552 23.7583 24.3552Z" fill="#FF981F"/>
</svg>
