<svg width="20" height="18" viewBox="0 0 20 18" fill="none" xmlns="http://www.w3.org/2000/svg">
<path d="M19.25 6.15018C16.94 2.52017 13.56 0.430176 10 0.430176C8.22 0.430176 6.49 0.950176 4.91 1.92018C3.33 2.90018 1.91 4.33017 0.75 6.15018C-0.25 7.72018 -0.25 10.2702 0.75 11.8402C3.06 15.4802 6.44 17.5602 10 17.5602C11.78 17.5602 13.51 17.0402 15.09 16.0702C16.67 15.0902 18.09 13.6602 19.25 11.8402C20.25 10.2802 20.25 7.72018 19.25 6.15018ZM10 13.0402C7.76 13.0402 5.96 11.2302 5.96 9.00018C5.96 6.77018 7.76 4.96018 10 4.96018C12.24 4.96018 14.04 6.77018 14.04 9.00018C14.04 11.2302 12.24 13.0402 10 13.0402Z" fill="#292D32"/>
</svg>
