<svg width="18" height="16" viewBox="0 0 18 16" fill="none" xmlns="http://www.w3.org/2000/svg">
<path fill-rule="evenodd" clip-rule="evenodd" d="M7.16923 10.7105C7.68962 11.0633 8.32385 11.2766 8.99874 11.2766C10.7876 11.2766 12.2431 9.80801 12.2431 8.00308C12.2431 7.32213 12.0317 6.6822 11.682 6.15712L10.7957 7.05139C10.9421 7.33033 11.0234 7.6585 11.0234 8.00308C11.0234 9.12706 10.1127 10.0459 8.99874 10.0459C8.65723 10.0459 8.33198 9.96389 8.05553 9.81621L7.16923 10.7105ZM14.3572 3.45793C15.5362 4.54089 16.5363 6.00124 17.2844 7.75695C17.3494 7.91283 17.3494 8.09333 17.2844 8.241C15.5443 12.3267 12.4463 14.7716 8.99874 14.7716H8.99061C7.4213 14.7716 5.91703 14.2547 4.59166 13.3112L3.01421 14.9028C2.89224 15.0259 2.73775 15.0833 2.58326 15.0833C2.42877 15.0833 2.26615 15.0259 2.15231 14.9028C1.94903 14.6977 1.91651 14.3696 2.07913 14.1316L2.10352 14.0988L14.1295 1.96476C14.1458 1.94835 14.162 1.93194 14.1702 1.91553L14.1702 1.91553C14.1864 1.89912 14.2027 1.88272 14.2108 1.86631L14.9751 1.09511C15.2191 0.857187 15.6012 0.857187 15.837 1.09511C16.081 1.33303 16.081 1.72684 15.837 1.96476L14.3572 3.45793ZM5.74847 8.00628C5.74847 8.21959 5.77287 8.4329 5.80539 8.6298L2.79687 11.6654C1.98375 10.7137 1.27634 9.56508 0.715291 8.2442C0.650242 8.09652 0.650242 7.91603 0.715291 7.76015C2.45536 3.67444 5.55333 1.23778 8.9928 1.23778H9.00093C10.1637 1.23778 11.2939 1.51673 12.3347 2.0418L9.6189 4.78201C9.42375 4.7492 9.21234 4.72458 9.00093 4.72458C7.20395 4.72458 5.74847 6.19314 5.74847 8.00628Z" fill="#9E9E9E"/>
</svg>
