<svg width="22" height="22" viewBox="0 0 22 22" fill="none" xmlns="http://www.w3.org/2000/svg">
<path d="M8.24967 20.1666H13.7497C18.333 20.1666 20.1663 18.3333 20.1663 13.7499V8.24992C20.1663 3.66659 18.333 1.83325 13.7497 1.83325H8.24967C3.66634 1.83325 1.83301 3.66659 1.83301 8.24992V13.7499C1.83301 18.3333 3.66634 20.1666 8.24967 20.1666Z" stroke="#958E98" stroke-width="1.5" stroke-linecap="round" stroke-linejoin="round"/>
<path d="M8.25033 9.16667C9.26285 9.16667 10.0837 8.34586 10.0837 7.33333C10.0837 6.32081 9.26285 5.5 8.25033 5.5C7.2378 5.5 6.41699 6.32081 6.41699 7.33333C6.41699 8.34586 7.2378 9.16667 8.25033 9.16667Z" stroke="#958E98" stroke-width="1.5" stroke-linecap="round" stroke-linejoin="round"/>
<path d="M2.44727 17.3709L6.96643 14.3368C7.6906 13.8509 8.7356 13.9059 9.38643 14.4651L9.68893 14.7309C10.4039 15.3451 11.5589 15.3451 12.2739 14.7309L16.0873 11.4584C16.8023 10.8443 17.9573 10.8443 18.6723 11.4584L20.1664 12.7418" stroke="#958E98" stroke-width="1.5" stroke-linecap="round" stroke-linejoin="round"/>
</svg>
