<svg width="25" height="24" viewBox="0 0 25 24" fill="none" xmlns="http://www.w3.org/2000/svg">
<path d="M10.0322 20.7714V17.7047C10.0322 16.9246 10.6681 16.2908 11.456 16.2856H14.3421C15.1337 16.2856 15.7755 16.9209 15.7755 17.7047V17.7047V20.7809C15.7753 21.4432 16.3093 21.9845 16.978 22H18.9021C20.8201 22 22.375 20.4607 22.375 18.5618V18.5618V9.83784C22.3648 9.09083 22.0105 8.38935 21.413 7.93303L14.8327 2.6853C13.6799 1.77157 12.0412 1.77157 10.8884 2.6853L4.33703 7.94256C3.73726 8.39702 3.38239 9.09967 3.375 9.84736V18.5618C3.375 20.4607 4.92988 22 6.84791 22H8.77196C9.45735 22 10.013 21.4499 10.013 20.7714V20.7714" stroke="#9E9E9E" stroke-width="1.5" stroke-linecap="round" stroke-linejoin="round"/>
</svg>
