<svg width="20" height="20" viewBox="0 0 20 20" fill="none" xmlns="http://www.w3.org/2000/svg">
<path d="M6.88478 18.7733V15.7156C6.88478 14.9351 7.52217 14.3023 8.30844 14.3023H11.1826C11.5602 14.3023 11.9223 14.4512 12.1893 14.7163C12.4563 14.9813 12.6063 15.3408 12.6063 15.7156V18.7733C12.6039 19.0978 12.7321 19.4099 12.9624 19.6402C13.1927 19.8705 13.5061 20 13.8329 20H15.7938C16.7096 20.0023 17.5888 19.6428 18.2372 19.0008C18.8856 18.3588 19.25 17.487 19.25 16.5778V7.86686C19.25 7.13246 18.9221 6.43584 18.3546 5.96467L11.684 0.675869C10.5237 -0.251438 8.86111 -0.221498 7.73539 0.746979L1.21701 5.96467C0.622741 6.42195 0.267552 7.12064 0.25 7.86686V16.5689C0.25 18.4639 1.79738 20 3.70617 20H5.62229C6.30123 20 6.853 19.4562 6.85792 18.7822L6.88478 18.7733Z" fill="#000B33"/>
</svg>
