<svg width="32" height="32" viewBox="0 0 32 32" fill="none" xmlns="http://www.w3.org/2000/svg">
<path d="M19.75 28.5L12.25 31V18L19.75 15.5V28.5Z" fill="white"/>
<path d="M12.25 31L4.75 28.5V15.5L12.25 18V31Z" fill="#00E1F0"/>
<path d="M27.25 31L19.75 28.5V15.5L27.25 18V31Z" fill="#00E1F0"/>
<path d="M26.25 11C26.25 19.4 16.25 23 16.25 23C16.25 23 6.25 19.4 6.25 11C6.25 8.34784 7.30357 5.8043 9.17893 3.92893C11.0543 2.05357 13.5978 1 16.25 1C18.9022 1 21.4457 2.05357 23.3211 3.92893C25.1964 5.8043 26.25 8.34784 26.25 11Z" fill="white"/>
<path d="M21.75 11H10.75L12.691 7H19.809L21.75 11Z" fill="#F7F9FA"/>
<path d="M12.75 11H19.75V15H12.75V11Z" fill="#F7F9FA"/>
<path d="M22.6497 10.5624L20.7086 6.56284C20.6266 6.39393 20.4988 6.25152 20.3397 6.15188C20.1806 6.05224 19.9967 5.9994 19.8089 5.99942H19.0001V5.49945C19.0001 5.23423 18.8947 4.97988 18.7072 4.79234C18.5197 4.60481 18.2653 4.49945 18.0001 4.49945C17.7349 4.49945 17.4805 4.60481 17.293 4.79234C17.1054 4.97988 17.0001 5.23423 17.0001 5.49945V5.99942H12.6913C12.5035 5.9994 12.3196 6.05223 12.1605 6.15187C12.0014 6.25151 11.8735 6.39393 11.7916 6.56284L9.85043 10.5624C9.77842 10.7151 9.74593 10.8833 9.75594 11.0518C9.76595 11.2202 9.81814 11.3835 9.90772 11.5265C9.99729 11.6695 10.1214 11.7877 10.2686 11.8703C10.4158 11.9528 10.5814 11.997 10.7501 11.9988H11.7501V14.9985C11.7501 15.2637 11.8555 15.5181 12.043 15.7056C12.2306 15.8931 12.4849 15.9984 12.7501 15.9984H19.7501C20.0153 15.9984 20.2696 15.8931 20.4572 15.7056C20.6447 15.5181 20.7501 15.2637 20.7501 14.9985V11.9988H21.7501C21.9188 11.997 22.0844 11.9528 22.2316 11.8703C22.3788 11.7877 22.5029 11.6695 22.5924 11.5265C22.682 11.3835 22.7342 11.2202 22.7442 11.0518C22.7542 10.8833 22.7218 10.7151 22.6497 10.5624ZM18.7501 13.9986H13.7501V11.9988H18.7501V13.9986ZM12.347 9.99903L13.3175 7.99921H17.1388C17.2256 8.15108 17.3509 8.27732 17.5022 8.36513C17.6534 8.45293 17.8252 8.49918 18.0001 8.49918C18.175 8.49918 18.3468 8.45293 18.498 8.36513C18.6493 8.27732 18.7746 8.15108 18.8614 7.99921H19.1827L20.1532 9.99903H12.347Z" fill="#0F62F9"/>
<path d="M27.5657 17.0495L25.8257 16.4705C26.7638 14.7997 27.2544 12.915 27.25 10.9989C27.2422 9.39399 26.8833 7.81027 26.1985 6.35881C25.5137 4.90735 24.5196 3.62332 23.2859 2.5968C22.0522 1.57028 20.6089 0.826136 19.0572 0.41658C17.5054 0.00702384 15.8828 -0.0580242 14.3033 0.226C12.7237 0.510023 11.2254 1.13624 9.91355 2.06071C8.60167 2.98518 7.50797 4.18552 6.70918 5.5775C5.91039 6.96948 5.42587 8.51938 5.2896 10.1185C5.15333 11.7176 5.36861 13.3271 5.92035 14.8342L5.06567 14.5498C4.91541 14.5013 4.75586 14.4889 4.59991 14.5135C4.44396 14.5381 4.29597 14.599 4.16791 14.6913C4.03985 14.7837 3.93529 14.9048 3.8627 15.045C3.7901 15.1852 3.7515 15.3406 3.75 15.4984V28.4972C3.75001 28.707 3.81607 28.9116 3.9388 29.0819C4.06153 29.2521 4.23472 29.3794 4.43384 29.4458L11.9338 31.9455C12.1392 32.0131 12.3608 32.0131 12.5662 31.9455L19.75 29.5512L26.9338 31.9455C27.0841 31.994 27.2437 32.0065 27.3997 31.9819C27.5557 31.9574 27.7037 31.8965 27.8318 31.8041C27.96 31.7118 28.0646 31.5906 28.1372 31.4504C28.2098 31.3102 28.2485 31.1548 28.25 30.9969V17.9982C28.25 17.7882 28.1839 17.5836 28.0611 17.4133C27.9382 17.2431 27.7649 17.1158 27.5657 17.0495ZM11.25 29.6096L5.75 27.7765V16.885L7.2222 17.3748C8.31429 18.9492 9.67821 20.3164 11.25 21.4122V29.6096ZM18.75 27.7765L13.25 29.6096V22.6827C14.1037 23.1687 14.9934 23.5886 15.9114 23.9385C16.1303 24.0172 16.3697 24.0172 16.5886 23.9385C17.3295 23.6572 18.0515 23.3282 18.75 22.9538V27.7765ZM16.25 21.9211C14.571 21.2151 7.25 17.7484 7.25 10.9989C7.25 8.61191 8.19821 6.32272 9.88604 4.6349C11.5739 2.94707 13.8631 1.99886 16.25 1.99886C18.6369 1.99886 20.9261 2.94707 22.614 4.6349C24.3018 6.32272 25.25 8.61191 25.25 10.9989C25.25 17.7489 17.9277 21.2159 16.25 21.9211ZM26.25 29.6096L20.75 27.7765V21.7595C22.2345 20.781 23.5585 19.5786 24.6753 18.1951L26.25 18.7193V29.6096Z" fill="#0F62F9"/>
<path d="M7.7495 25.4965C7.74948 25.6943 7.80814 25.8878 7.91805 26.0523C8.02797 26.2168 8.1842 26.345 8.367 26.4208C8.5498 26.4965 8.75095 26.5163 8.94501 26.4777C9.13908 26.4392 9.31734 26.3439 9.45725 26.204C9.59717 26.0641 9.69245 25.8858 9.73106 25.6917C9.76967 25.4977 9.74986 25.2965 9.67414 25.1137C9.59842 24.9309 9.47019 24.7747 9.30568 24.6648C9.14116 24.5548 8.94774 24.4962 8.74987 24.4962C8.4848 24.4969 8.2308 24.6025 8.04336 24.79C7.85591 24.9774 7.75027 25.2314 7.7495 25.4965Z" fill="#0F62F9"/>
</svg>
