<svg width="32" height="32" viewBox="0 0 32 32" fill="none" xmlns="http://www.w3.org/2000/svg">
<g clip-path="url(#clip0_25_2)">
<path d="M1 10.5V2.5C1 2.10218 1.15804 1.72064 1.43934 1.43934C1.72064 1.15804 2.10218 1 2.5 1H16.5C16.8978 1 17.2794 1.15804 17.5607 1.43934C17.842 1.72064 18 2.10218 18 2.5V31H1V14.5" fill="white"/>
<path d="M18 12.5H24.5C24.8978 12.5 25.2794 12.658 25.5607 12.9393C25.842 13.2206 26 13.6022 26 14V31H18V12.5Z" fill="white"/>
<path d="M5.5 21H13.5V31H5.5V21Z" fill="#00E1F0"/>
<path d="M31 32C31.5523 32 32 31.5523 32 31C32 30.4477 31.5523 30 31 30C30.4477 30 30 30.4477 30 31C30 31.5523 30.4477 32 31 32Z" fill="#00E1F0"/>
<path d="M27 30V14C27 13.337 26.7366 12.7011 26.2678 12.2322C25.7989 11.7634 25.163 11.5 24.5 11.5H19V2.5C19 1.83696 18.7366 1.20107 18.2678 0.732233C17.7989 0.263392 17.163 0 16.5 0L2.5 0C1.83696 0 1.20107 0.263392 0.732233 0.732233C0.263392 1.20107 0 1.83696 0 2.5L0 10.5C0 10.7652 0.105357 11.0196 0.292893 11.2071C0.48043 11.3946 0.734784 11.5 1 11.5C1.26522 11.5 1.51957 11.3946 1.70711 11.2071C1.89464 11.0196 2 10.7652 2 10.5V2.5C2 2.36739 2.05268 2.24021 2.14645 2.14645C2.24021 2.05268 2.36739 2 2.5 2H16.5C16.6326 2 16.7598 2.05268 16.8536 2.14645C16.9473 2.24021 17 2.36739 17 2.5V30H14.5V20.5C14.5 20.2348 14.3946 19.9804 14.2071 19.7929C14.0196 19.6054 13.7652 19.5 13.5 19.5H5.5C5.23478 19.5 4.98043 19.6054 4.79289 19.7929C4.60536 19.9804 4.5 20.2348 4.5 20.5V30H2V14.5C2 14.2348 1.89464 13.9804 1.70711 13.7929C1.51957 13.6054 1.26522 13.5 1 13.5C0.734784 13.5 0.48043 13.6054 0.292893 13.7929C0.105357 13.9804 0 14.2348 0 14.5L0 31C0 31.2652 0.105357 31.5196 0.292893 31.7071C0.48043 31.8946 0.734784 32 1 32H27C27.2652 32 27.5196 31.8946 27.7071 31.7071C27.8946 31.5196 28 31.2652 28 31C28 30.7348 27.8946 30.4804 27.7071 30.2929C27.5196 30.1054 27.2652 30 27 30ZM12.5 30H6.5V21.5H12.5V30ZM25 30H19V13.5H24.5C24.6326 13.5 24.7598 13.5527 24.8536 13.6464C24.9473 13.7402 25 13.8674 25 14V30Z" fill="#0F62F9"/>
<path d="M9.5 4C9.23478 4 8.98043 4.10536 8.79289 4.29289C8.60536 4.48043 8.5 4.73478 8.5 5V6.5H7C6.73478 6.5 6.48043 6.60536 6.29289 6.79289C6.10536 6.98043 6 7.23478 6 7.5C6 7.76522 6.10536 8.01957 6.29289 8.20711C6.48043 8.39464 6.73478 8.5 7 8.5H8.5V10C8.5 10.2652 8.60536 10.5196 8.79289 10.7071C8.98043 10.8946 9.23478 11 9.5 11C9.76522 11 10.0196 10.8946 10.2071 10.7071C10.3946 10.5196 10.5 10.2652 10.5 10V8.5H12C12.2652 8.5 12.5196 8.39464 12.7071 8.20711C12.8946 8.01957 13 7.76522 13 7.5C13 7.23478 12.8946 6.98043 12.7071 6.79289C12.5196 6.60536 12.2652 6.5 12 6.5H10.5V5C10.5 4.73478 10.3946 4.48043 10.2071 4.29289C10.0196 4.10536 9.76522 4 9.5 4Z" fill="#0F62F9"/>
<path d="M22 15.5C21.7348 15.5 21.4804 15.6054 21.2929 15.7929C21.1054 15.9804 21 16.2348 21 16.5V19C21 19.2652 21.1054 19.5196 21.2929 19.7071C21.4804 19.8946 21.7348 20 22 20C22.2652 20 22.5196 19.8946 22.7071 19.7071C22.8946 19.5196 23 19.2652 23 19V16.5C23 16.2348 22.8946 15.9804 22.7071 15.7929C22.5196 15.6054 22.2652 15.5 22 15.5Z" fill="#0F62F9"/>
<path d="M22 22C21.7348 22 21.4804 22.1054 21.2929 22.2929C21.1054 22.4804 21 22.7348 21 23V25.5C21 25.7652 21.1054 26.0196 21.2929 26.2071C21.4804 26.3946 21.7348 26.5 22 26.5C22.2652 26.5 22.5196 26.3946 22.7071 26.2071C22.8946 26.0196 23 25.7652 23 25.5V23C23 22.7348 22.8946 22.4804 22.7071 22.2929C22.5196 22.1054 22.2652 22 22 22Z" fill="#0F62F9"/>
<path d="M4 16C4 16.2652 4.10536 16.5196 4.29289 16.7071C4.48043 16.8946 4.73478 17 5 17H7.5C7.76522 17 8.01957 16.8946 8.20711 16.7071C8.39464 16.5196 8.5 16.2652 8.5 16C8.5 15.7348 8.39464 15.4804 8.20711 15.2929C8.01957 15.1054 7.76522 15 7.5 15H5C4.73478 15 4.48043 15.1054 4.29289 15.2929C4.10536 15.4804 4 15.7348 4 16Z" fill="#0F62F9"/>
<path d="M10.5 16C10.5 16.2652 10.6054 16.5196 10.7929 16.7071C10.9804 16.8946 11.2348 17 11.5 17H14C14.2652 17 14.5196 16.8946 14.7071 16.7071C14.8946 16.5196 15 16.2652 15 16C15 15.7348 14.8946 15.4804 14.7071 15.2929C14.5196 15.1054 14.2652 15 14 15H11.5C11.2348 15 10.9804 15.1054 10.7929 15.2929C10.6054 15.4804 10.5 15.7348 10.5 16Z" fill="#0F62F9"/>
</g>
<defs>
<clipPath id="clip0_25_2">
<rect width="32" height="32" fill="white"/>
</clipPath>
</defs>
</svg>
