<svg width="10" height="12" viewBox="0 0 10 12" fill="none" xmlns="http://www.w3.org/2000/svg">
<path d="M7.58281 9.22044C7.72281 9.52844 7.79631 9.86234 7.79981 10.2004H2.19981C2.20385 9.86155 2.28022 9.52743 2.42381 9.22044C2.56912 8.90526 2.78462 8.62751 3.05381 8.40844L4.32781 7.34444C4.52399 7.17998 4.6817 6.97448 4.78981 6.74244C4.90181 6.51144 4.95851 6.25734 4.95781 6.00044H5.04181C5.05161 6.25944 5.12091 6.51424 5.24481 6.74244C5.35051 6.97204 5.50591 7.17504 5.69981 7.33744L6.94581 8.40844C7.21531 8.62894 7.43301 8.90544 7.58281 9.22044ZM1.63631 11.4912C1.79731 11.564 1.96694 11.6004 2.14521 11.6004H7.85441C8.03641 11.5967 8.20791 11.5603 8.36891 11.4912C8.52898 11.4212 8.67108 11.3228 8.79521 11.1958C8.91934 11.0684 9.01781 10.9245 9.09061 10.7639C9.16341 10.6029 9.19981 10.4333 9.19981 10.255C9.19981 9.96711 9.16878 9.68827 9.10671 9.41854C9.04508 9.14993 8.95715 8.88803 8.84421 8.63664C8.73216 8.38574 8.59096 8.14891 8.42351 7.93104C8.25315 7.70957 8.05877 7.50767 7.84391 7.32904L6.56991 6.26854C6.53044 6.2359 6.49866 6.19494 6.47685 6.1486C6.45504 6.10225 6.44372 6.05166 6.44372 6.00044C6.44372 5.94922 6.45504 5.89863 6.47685 5.85228C6.49866 5.80594 6.53044 5.76498 6.56991 5.73234L7.84391 4.66624C8.27505 4.3122 8.62079 3.86548 8.85541 3.35934C9.08653 2.85307 9.20407 2.30236 9.19981 1.74584C9.19867 1.56994 9.16228 1.39606 9.09278 1.23447C9.02329 1.07288 8.9221 0.926857 8.79521 0.80504C8.66915 0.682657 8.52308 0.582748 8.36331 0.50964C8.20381 0.436134 8.03002 0.398842 7.85441 0.40044H2.14521C1.96321 0.403707 1.79194 0.440106 1.63141 0.50964C1.47041 0.57964 1.32808 0.678107 1.20441 0.80504C1.08203 0.931102 0.98212 1.07718 0.909011 1.23694C0.836211 1.39794 0.799811 1.56757 0.799811 1.74584C0.803545 2.32171 0.920211 2.85954 1.14981 3.35934C1.38404 3.86438 1.72791 4.31084 2.15641 4.66624L3.43041 5.73234C3.46977 5.76505 3.50145 5.80603 3.52319 5.85237C3.54493 5.8987 3.5562 5.94926 3.5562 6.00044C3.5562 6.05162 3.54493 6.10218 3.52319 6.14851C3.50145 6.19485 3.46977 6.23583 3.43041 6.26854L2.15641 7.32904C1.94213 7.51059 1.74762 7.71425 1.57611 7.93664C1.23948 8.37552 1.00425 8.88352 0.887311 9.42414C0.828628 9.6972 0.799295 9.97575 0.799811 10.255C0.803545 10.437 0.839945 10.6085 0.909011 10.7695C0.979011 10.9296 1.07748 11.0717 1.20441 11.1958C1.33181 11.32 1.47578 11.4184 1.63631 11.4912ZM8.08401 10.8514C8.00222 10.8838 7.91506 10.9004 7.82711 10.9004H2.17251C2.08231 10.8993 1.99318 10.8808 1.91001 10.8458C1.8307 10.812 1.75832 10.7639 1.69651 10.7037C1.63324 10.6435 1.58318 10.5708 1.54951 10.4902C1.51633 10.407 1.49946 10.3181 1.49981 10.2284C1.50127 9.77861 1.60013 9.33442 1.78961 8.92644C1.97896 8.51833 2.25739 8.15786 2.60441 7.87154L3.87841 6.80474C3.99881 6.70301 4.09191 6.58284 4.15771 6.44424C4.22259 6.30467 4.2562 6.15261 4.2562 5.99869C4.2562 5.84477 4.22259 5.69271 4.15771 5.55314C4.09435 5.41243 3.99865 5.28867 3.87841 5.19194L2.60441 4.13074C2.42852 3.98819 2.27057 3.82483 2.13401 3.64424C2.0014 3.4659 1.88608 3.27534 1.78961 3.07514C1.69166 2.87325 1.61834 2.66033 1.57121 2.44094C1.52368 2.22152 1.49975 1.99765 1.49981 1.77314C1.50354 1.67514 1.52174 1.58764 1.55441 1.51064C1.58708 1.43411 1.63444 1.36294 1.69651 1.29714C1.75672 1.23387 1.82942 1.18381 1.91001 1.15014C1.99329 1.11696 2.08217 1.10009 2.17181 1.10044H7.82641C7.92441 1.10744 8.01191 1.12564 8.08891 1.15504C8.16591 1.18444 8.23708 1.23181 8.30241 1.29714C8.3652 1.35942 8.41494 1.43359 8.44871 1.51532C8.48249 1.59706 8.49962 1.68471 8.49911 1.77314C8.49949 2.22475 8.40056 2.67092 8.20931 3.08004C8.01934 3.48638 7.74095 3.84512 7.39451 4.13004L6.12051 5.19124C6.00011 5.28924 5.90701 5.40941 5.84121 5.55174C5.77623 5.69141 5.74255 5.84359 5.74255 5.99764C5.74255 6.15169 5.77623 6.30387 5.84121 6.44354C5.90701 6.58214 6.00011 6.70231 6.12051 6.80404L7.39451 7.87084C7.75151 8.16951 8.02498 8.52137 8.21491 8.92644C8.40438 9.33104 8.49911 9.76504 8.49911 10.2284C8.4939 10.3179 8.4755 10.4061 8.44451 10.4902C8.41228 10.5704 8.36392 10.6431 8.30241 10.7037C8.23936 10.7662 8.165 10.8161 8.08331 10.8507" fill="#7210FF"/>
</svg>
