<svg width="25" height="24" viewBox="0 0 25 24" fill="none" xmlns="http://www.w3.org/2000/svg">
<path d="M13.126 2C14.23 2 15.126 2.931 15.126 4.08C15.126 5.03 15.161 5.874 14.394 6.572C11.885 8.857 10.628 10 9.125 10C7.622 10 6.367 8.857 3.856 6.572C3.089 5.874 3.126 5.029 3.126 4.08C3.125 2.93 4.019 2 5.123 2M9.125 14V17.5C9.125 18.6935 9.59911 19.8381 10.443 20.682C11.2869 21.5259 12.4315 22 13.625 22C14.8185 22 15.9631 21.5259 16.807 20.682C17.6509 19.8381 18.125 18.6935 18.125 17.5V16" stroke="#9E9E9E" stroke-width="1.5" stroke-linecap="round" stroke-linejoin="round"/>
<path d="M14.125 7L12.823 10.256C12.477 11.121 12.303 11.554 12.013 11.909C11.723 12.265 11.335 12.521 10.557 13.035L9.095 14L7.658 13.032C6.898 12.52 6.517 12.264 6.233 11.912C5.95 11.562 5.779 11.136 5.439 10.284L4.125 7M18.133 13H18.124M21.125 13C21.125 13.7956 20.8089 14.5587 20.2463 15.1213C19.6837 15.6839 18.9206 16 18.125 16C17.3294 16 16.5663 15.6839 16.0037 15.1213C15.4411 14.5587 15.125 13.7956 15.125 13C15.125 12.2044 15.4411 11.4413 16.0037 10.8787C16.5663 10.3161 17.3294 10 18.125 10C18.9206 10 19.6837 10.3161 20.2463 10.8787C20.8089 11.4413 21.125 12.2044 21.125 13Z" stroke="#9E9E9E" stroke-width="1.5" stroke-linecap="round" stroke-linejoin="round"/>
</svg>
