<svg width="60" height="60" viewBox="0 0 60 60" fill="none" xmlns="http://www.w3.org/2000/svg">
<circle cx="30" cy="30" r="30" fill="#EAF6FF"/>
<path d="M18.1 21.6V41.844C18.1 42.726 18.8422 43.8 19.756 43.8H39.6868C40.5982 43.8 41.5 42.726 41.5 41.844V21.6H18.1ZM29.776 37.6656C26.26 37.6656 23.4094 34.9092 23.4094 31.5078C23.4094 28.1064 26.26 25.35 29.776 25.35C33.292 25.35 36.1426 28.1064 36.1426 31.5078C36.1426 34.9098 33.292 37.6656 29.776 37.6656ZM39.6868 15.6H19.756C18.8422 15.6 18.1 16.2198 18.1 17.103V20.4H41.5V17.103C41.5 16.2198 40.5982 15.6 39.6868 15.6ZM25.9 19.2H19.3V16.8H25.9V19.2ZM37.3876 19.032C36.6382 19.032 36.0328 18.4446 36.0328 17.7192C36.0328 16.995 36.6382 16.4076 37.3876 16.4076C38.137 16.4076 38.7442 16.995 38.7442 17.7192C38.7436 18.444 38.137 19.032 37.3876 19.032Z" fill="#1A96F0"/>
</svg>
