<svg width="16" height="18" viewBox="0 0 16 18" fill="none" xmlns="http://www.w3.org/2000/svg">
<path fill-rule="evenodd" clip-rule="evenodd" d="M12.6021 5.16334V6.44113C14.0374 6.88914 15.0832 8.18845 15.0832 9.74034V13.8544C15.0832 15.7757 13.4904 17.3333 11.5267 17.3333H4.47384C2.5093 17.3333 0.916504 15.7757 0.916504 13.8544V9.74034C0.916504 8.18845 1.96313 6.88914 3.39758 6.44113V5.16334C3.40604 2.67899 5.46373 0.666672 7.98714 0.666672C10.5444 0.666672 12.6021 2.67899 12.6021 5.16334ZM8.00407 2.11588C9.72304 2.11588 11.1202 3.48227 11.1202 5.16334V6.26143H4.87944V5.14678C4.88791 3.47399 6.2851 2.11588 8.00407 2.11588ZM8.74077 12.7125C8.74077 13.1182 8.41053 13.4412 7.9956 13.4412C7.58915 13.4412 7.2589 13.1182 7.2589 12.7125V10.874C7.2589 10.4765 7.58915 10.1536 7.9956 10.1536C8.41053 10.1536 8.74077 10.4765 8.74077 10.874V12.7125Z" fill="#9E9E9E"/>
</svg>
