<svg width="20" height="20" viewBox="0 0 20 20" fill="none" xmlns="http://www.w3.org/2000/svg">
<path d="M11.5336 3.20011C11.5342 3.50364 11.4446 3.80051 11.2762 4.05304C11.1078 4.30556 10.8681 4.50235 10.5877 4.61843C10.3072 4.7345 9.99857 4.76463 9.70095 4.70499C9.40334 4.64535 9.13015 4.49863 8.91608 4.28344C8.77376 4.14107 8.66087 3.97206 8.58387 3.78606C8.50687 3.60006 8.46726 3.40071 8.46729 3.1994C8.46733 2.99809 8.50702 2.79876 8.5841 2.61279C8.66117 2.42682 8.77412 2.25785 8.91649 2.11553C9.05887 1.97321 9.22788 1.86032 9.41388 1.78332C9.59988 1.70632 9.79923 1.66671 10.0005 1.66675C10.2018 1.66678 10.4012 1.70647 10.5871 1.78355C10.7731 1.86062 10.9421 1.97357 11.0844 2.11594C11.3719 2.40344 11.5344 2.79261 11.5344 3.19928M14.5336 4.73178C14.7379 4.73654 14.9411 4.70041 15.1312 4.62552C15.3214 4.55062 15.4947 4.43847 15.6408 4.29566C15.787 4.15284 15.9032 3.98224 15.9825 3.79389C16.0618 3.60554 16.1027 3.40323 16.1027 3.19886C16.1027 2.99449 16.0618 2.79219 15.9825 2.60383C15.9032 2.41548 15.787 2.24488 15.6408 2.10207C15.4947 1.95925 15.3214 1.8471 15.1312 1.7722C14.9411 1.69731 14.7379 1.66118 14.5336 1.66594C14.1269 1.66594 13.7369 1.82749 13.4493 2.11505C13.1618 2.4026 13.0002 2.79261 13.0002 3.19928C13.0002 3.60594 13.1618 3.99595 13.4493 4.28351C13.7369 4.57106 14.1269 4.73178 14.5336 4.73178ZM7.00024 3.20011C7.00085 3.50364 6.91126 3.80051 6.74285 4.05304C6.57443 4.30556 6.33478 4.50235 6.05432 4.61843C5.77386 4.7345 5.46523 4.76463 5.16762 4.70499C4.87 4.64535 4.59682 4.49863 4.38274 4.28344C4.24042 4.14112 4.12753 3.97217 4.0505 3.78622C3.97348 3.60027 3.93384 3.40096 3.93384 3.19969C3.93384 2.99842 3.97348 2.79912 4.0505 2.61317C4.12753 2.42722 4.24042 2.25826 4.38274 2.11594C4.52506 1.97362 4.69402 1.86073 4.87997 1.78371C5.06592 1.70668 5.26522 1.66704 5.46649 1.66704C5.66776 1.66704 5.86706 1.70668 6.05301 1.78371C6.23896 1.86073 6.40792 1.97362 6.55024 2.11594C6.83774 2.40344 6.99941 2.79261 6.99941 3.19928M11.5336 7.73011C11.5355 7.93399 11.4967 8.13621 11.4194 8.32491C11.3422 8.51361 11.2281 8.68499 11.0838 8.82904C10.9395 8.97308 10.7679 9.08688 10.5791 9.16377C10.3902 9.24066 10.1879 9.27909 9.98406 9.27682C9.78018 9.27454 9.5788 9.23161 9.39172 9.15053C9.20465 9.06945 9.03563 8.95185 8.89457 8.80463C8.75351 8.6574 8.64325 8.48351 8.57025 8.29314C8.49724 8.10276 8.46296 7.89973 8.46941 7.69594C8.48209 7.29514 8.65137 6.91527 8.94093 6.63784C9.23048 6.36041 9.61725 6.20754 10.0182 6.21201C10.4192 6.21648 10.8025 6.37794 11.0858 6.66176C11.3691 6.94557 11.5298 7.32912 11.5336 7.73011ZM14.5336 9.26261C14.7379 9.26737 14.9411 9.23125 15.1312 9.15635C15.3214 9.08146 15.4947 8.96931 15.6408 8.82649C15.787 8.68367 15.9032 8.51307 15.9825 8.32472C16.0618 8.13637 16.1027 7.93406 16.1027 7.72969C16.1027 7.52533 16.0618 7.32302 15.9825 7.13467C15.9032 6.94631 15.787 6.77572 15.6408 6.6329C15.4947 6.49008 15.3214 6.37793 15.1312 6.30304C14.9411 6.22814 14.7379 6.19201 14.5336 6.19678C14.1269 6.19678 13.7369 6.35832 13.4493 6.64588C13.1618 6.93344 13.0002 7.32345 13.0002 7.73011C13.0002 8.13678 13.1618 8.52679 13.4493 8.81434C13.7369 9.1019 14.1269 9.26344 14.5336 9.26344M7.00024 7.73011C7.00045 8.03346 6.91062 8.33005 6.74214 8.58232C6.57366 8.83458 6.3341 9.03117 6.0538 9.14718C5.77351 9.26318 5.46509 9.2934 5.16761 9.23399C4.87013 9.17458 4.59698 9.02822 4.38274 8.81344C4.20485 8.6351 4.07366 8.41566 4.00078 8.17454C3.92791 7.93342 3.91559 7.67805 3.96492 7.43103C4.01425 7.18401 4.12371 6.95297 4.28362 6.75833C4.44352 6.5637 4.64893 6.41148 4.88168 6.31515C5.11443 6.21882 5.36734 6.18135 5.61802 6.20605C5.8687 6.23075 6.10943 6.31686 6.3189 6.45677C6.52837 6.59667 6.70012 6.78605 6.81897 7.00815C6.93781 7.23025 7.00007 7.47822 7.00024 7.73011ZM11.5336 12.2618C11.535 12.4888 11.486 12.7133 11.39 12.9191C11.294 13.1248 11.1534 13.3067 10.9785 13.4514C10.8036 13.5962 10.5987 13.7002 10.3786 13.7561C10.1586 13.8119 9.92884 13.8181 9.70608 13.7743C9.42113 13.7186 9.15785 13.5831 8.94686 13.3836C8.73588 13.1842 8.58587 12.9289 8.51428 12.6475C8.44268 12.3661 8.45245 12.0702 8.54244 11.7942C8.63243 11.5181 8.79895 11.2733 9.02262 11.0882C9.2463 10.9031 9.51794 10.7853 9.80594 10.7485C10.0939 10.7117 10.3865 10.7574 10.6495 10.8803C10.9125 11.0033 11.1353 11.1984 11.2918 11.4429C11.4483 11.6875 11.5321 11.9714 11.5336 12.2618ZM11.5336 16.8001C11.5339 17.027 11.4839 17.2511 11.387 17.4562C11.2902 17.6613 11.149 17.8424 10.9737 17.9864C10.7984 18.1303 10.5932 18.2335 10.3731 18.2884C10.1531 18.3434 9.92351 18.3488 9.70108 18.3043C9.40399 18.2448 9.13117 18.0987 8.91705 17.8844C8.70294 17.67 8.55712 17.397 8.49801 17.0999C8.4389 16.8027 8.46915 16.4947 8.58494 16.2148C8.70072 15.9348 8.89685 15.6954 9.14858 15.5268C9.37939 15.3726 9.64773 15.284 9.92497 15.2704C10.2022 15.2567 10.4779 15.3186 10.7228 15.4494C10.9676 15.5802 11.1723 15.775 11.3151 16.013C11.4579 16.251 11.5334 16.5225 11.5336 16.8001ZM16.0669 12.2618C16.0683 12.4888 16.0193 12.7133 15.9233 12.9191C15.8273 13.1248 15.6868 13.3067 15.5118 13.4514C15.3369 13.5962 15.132 13.7002 14.912 13.7561C14.6919 13.8119 14.4622 13.8181 14.2394 13.7743C14.0167 13.7307 13.8065 13.6383 13.6238 13.5036C13.4412 13.369 13.2907 13.1955 13.1832 12.9956C13.0757 12.7957 13.014 12.5745 13.0024 12.3479C12.9908 12.1213 13.0296 11.8949 13.1161 11.6851C13.2511 11.3576 13.4954 11.087 13.8075 10.9192C14.1195 10.7514 14.48 10.6969 14.8277 10.7648C15.1754 10.8328 15.4888 11.019 15.7147 11.2919C15.9406 11.5648 16.0651 11.9075 16.0669 12.2618ZM7.00024 12.2618C7.00251 12.5656 6.91436 12.8633 6.747 13.1169C6.57964 13.3705 6.34063 13.5686 6.06037 13.686C5.78012 13.8033 5.47128 13.8347 5.17314 13.7761C4.875 13.7175 4.60103 13.5715 4.38608 13.3568C4.2073 13.1791 4.07507 12.9601 4.00111 12.7192C3.92714 12.4782 3.91371 12.2227 3.96201 11.9754C4.0103 11.728 4.11884 11.4963 4.278 11.3009C4.43716 11.1055 4.64205 10.9523 4.87453 10.8549C5.107 10.7575 5.3599 10.719 5.61083 10.7426C5.86177 10.7663 6.103 10.8514 6.31319 10.9905C6.52337 11.1296 6.69602 11.3184 6.81586 11.5401C6.9357 11.7619 6.99903 12.0097 7.00024 12.2618Z" fill="#958E98"/>
</svg>
