<svg width="48" height="54" viewBox="0 0 48 54" fill="none" xmlns="http://www.w3.org/2000/svg">
<path d="M23.9996 30.4547C27.7252 30.4547 36.4848 25.9709 36.4848 15.2272C36.4848 13.7288 36.4482 12.2813 36.3248 10.9134C36.122 8.22122 35.5706 5.83524 34.1975 4.0066C32.4368 1.519 29.3562 0 23.9996 0C18.6426 0 15.5618 1.51915 13.8011 4.00722C12.429 5.83477 11.8775 8.21906 11.6746 10.9094C11.5508 12.2785 11.5142 13.7274 11.5142 15.2274C11.5142 25.9709 20.2739 30.4547 23.9996 30.4547ZM28.0749 5.57857C27.7112 6.4976 27.5291 6.95719 27.1653 7.87607C24.8165 7.21247 23.1823 7.21247 20.8335 7.87607C20.4697 6.95719 20.2878 6.4976 19.9239 5.57857C22.8611 4.68935 25.1379 4.6895 28.0749 5.57857ZM13.3717 12.8973C13.5151 13.2114 14.1262 14.4218 15.0726 14.5354C16.1598 14.6659 17.9646 10.6846 23.9994 10.6748C30.0342 10.6846 31.839 14.6659 32.9262 14.5354C33.8724 14.4218 34.4837 13.2113 34.6271 12.8973C34.6565 13.6685 34.6673 14.449 34.6673 15.2274C34.6673 20.4789 32.3483 23.7327 30.4031 25.5376C27.9519 27.8119 25.2305 28.6374 23.9994 28.6374C22.7683 28.6374 20.0469 27.8119 17.5957 25.5376C15.6503 23.7327 13.3315 20.4789 13.3315 15.2274C13.3315 14.449 13.3423 13.6684 13.3717 12.8973Z" fill="#2299DD"/>
<path d="M47.1788 46.0715C46.5413 42.108 45.2293 37.0026 42.5973 35.1883C40.8 33.9491 34.5292 30.5989 31.8515 29.1682L31.8052 29.1435C31.4991 28.9799 31.1252 29.0127 30.8523 29.227C29.4496 30.3283 27.913 31.0705 26.2853 31.4329C25.9979 31.497 25.7616 31.7014 25.6572 31.9767L23.9999 36.3458L22.3423 31.9767C22.2378 31.7014 22.0018 31.497 21.7143 31.4329C20.0865 31.0705 18.5499 30.3283 17.1472 29.227C16.874 29.0127 16.5005 28.9798 16.1944 29.1435C13.5483 30.5573 7.20098 33.9758 5.41018 35.1829C2.38037 37.224 1.05549 44.6113 0.820601 46.0715C0.797436 46.2163 0.810872 46.3644 0.859827 46.5027C0.968238 46.8087 3.74895 54.0001 23.9999 54.0001C44.2508 54.0001 47.0315 46.8087 47.1399 46.5027C47.1885 46.3644 47.2021 46.2162 47.1788 46.0715ZM36.4802 42.8299L34.5258 47.1429C34.494 47.2127 34.4245 47.2564 34.3495 47.2564C34.3397 47.2564 34.3302 47.2558 34.3204 47.2543C34.2347 47.2413 34.1682 47.1731 34.1572 47.087L33.7974 44.235H32.8984C32.8467 44.235 32.7973 44.2143 32.7607 44.1774C32.7244 44.1409 32.7041 44.091 32.7048 44.0393L32.7482 39.7265C32.7492 39.6202 32.8356 39.5346 32.9418 39.5346H35.9891C36.0505 39.5346 36.1085 39.564 36.1449 39.6134C36.1814 39.6627 36.1923 39.7265 36.1742 39.7853L35.3226 42.5561H36.3037C36.3696 42.5561 36.4309 42.5896 36.4666 42.6449C36.5024 42.7004 36.5074 42.77 36.4802 42.8299Z" fill="#2299DD"/>
</svg>
