<svg width="25" height="24" viewBox="0 0 25 24" fill="none" xmlns="http://www.w3.org/2000/svg">
<path fill-rule="evenodd" clip-rule="evenodd" d="M21.375 11.098V16.091C21.375 19.187 21.375 20.736 20.641 21.412C20.291 21.735 19.849 21.938 19.378 21.992C18.391 22.105 17.238 21.085 14.933 19.046C13.913 18.145 13.404 17.694 12.815 17.576C12.5246 17.5174 12.2254 17.5174 11.935 17.576C11.345 17.694 10.836 18.145 9.817 19.046C7.512 21.085 6.359 22.105 5.372 21.991C4.90024 21.9369 4.45791 21.7341 4.109 21.412C3.375 20.736 3.375 19.188 3.375 16.091V11.097C3.375 6.81 3.375 4.666 4.693 3.333C6.011 2 8.133 2 12.375 2C16.618 2 18.739 2 20.057 3.332C21.375 4.665 21.375 6.81 21.375 11.098ZM8.625 6C8.625 5.80109 8.70402 5.61032 8.84467 5.46967C8.98532 5.32902 9.17609 5.25 9.375 5.25H15.375C15.5739 5.25 15.7647 5.32902 15.9053 5.46967C16.046 5.61032 16.125 5.80109 16.125 6C16.125 6.19891 16.046 6.38968 15.9053 6.53033C15.7647 6.67098 15.5739 6.75 15.375 6.75H9.375C9.17609 6.75 8.98532 6.67098 8.84467 6.53033C8.70402 6.38968 8.625 6.19891 8.625 6Z" fill="#000B33"/>
</svg>
