<svg width="32" height="32" viewBox="0 0 32 32" fill="none" xmlns="http://www.w3.org/2000/svg">
<g clip-path="url(#clip0_25_408)">
<path d="M4.20004 8.5V2.5C4.20004 2.10218 4.35808 1.72064 4.63938 1.43934C4.92069 1.15804 5.30222 1 5.70004 1H19.7C20.0979 1 20.4794 1.15804 20.7607 1.43934C21.042 1.72064 21.2 2.10218 21.2 2.5V29.5C21.2 29.8978 21.042 30.2794 20.7607 30.5607C20.4794 30.842 20.0979 31 19.7 31H5.70004C5.30222 31 4.92069 30.842 4.63938 30.5607C4.35808 30.2794 4.20004 29.8978 4.20004 29.5V12.5" fill="white"/>
<path d="M4.5 23H21V31H4.5V23Z" fill="#F7F9FA"/>
<path d="M4.5 1.5H21V5H4.5V1.5Z" fill="#00E1F0"/>
<path d="M27.75 32C28.3023 32 28.75 31.5523 28.75 31C28.75 30.4477 28.3023 30 27.75 30C27.1977 30 26.75 30.4477 26.75 31C26.75 31.5523 27.1977 32 27.75 32Z" fill="#00E1F0"/>
<path d="M23.75 30H22.2C22.232 29.8352 22.2487 29.6678 22.25 29.5V15.86C22.4011 15.7727 22.5268 15.6475 22.6145 15.4966C22.7022 15.3457 22.7489 15.1745 22.75 15V14C22.7489 13.8255 22.7022 13.6543 22.6145 13.5034C22.5268 13.3525 22.4011 13.2273 22.25 13.14V10.86C22.4011 10.7727 22.5268 10.6475 22.6145 10.4966C22.7022 10.3457 22.7489 10.1745 22.75 10V5.5C22.7489 5.32549 22.7022 5.15429 22.6145 5.00342C22.5268 4.85254 22.4011 4.72726 22.25 4.64V2.5C22.25 2.1717 22.1853 1.84661 22.0597 1.54329C21.9341 1.23998 21.7499 0.964379 21.5178 0.732233C21.2856 0.500087 21.01 0.315938 20.7067 0.190301C20.4034 0.0646644 20.0783 0 19.75 0L5.75 0C5.08696 0 4.45107 0.263392 3.98223 0.732233C3.51339 1.20107 3.25 1.83696 3.25 2.5V8.5C3.25 8.76522 3.35536 9.01957 3.54289 9.20711C3.73043 9.39464 3.98478 9.5 4.25 9.5C4.51522 9.5 4.76957 9.39464 4.95711 9.20711C5.14464 9.01957 5.25 8.76522 5.25 8.5V6H20.25V22H5.25V12.5C5.25 12.2348 5.14464 11.9804 4.95711 11.7929C4.76957 11.6054 4.51522 11.5 4.25 11.5C3.98478 11.5 3.73043 11.6054 3.54289 11.7929C3.35536 11.9804 3.25 12.2348 3.25 12.5V29.5C3.25 30.163 3.51339 30.7989 3.98223 31.2678C4.45107 31.7366 5.08696 32 5.75 32H23.75C24.0152 32 24.2696 31.8946 24.4571 31.7071C24.6446 31.5196 24.75 31.2652 24.75 31C24.75 30.7348 24.6446 30.4804 24.4571 30.2929C24.2696 30.1054 24.0152 30 23.75 30ZM5.25 4V2.5C5.25 2.36739 5.30268 2.24021 5.39645 2.14645C5.49021 2.05268 5.61739 2 5.75 2H19.75C19.8826 2 20.0098 2.05268 20.1036 2.14645C20.1973 2.24021 20.25 2.36739 20.25 2.5V4H5.25ZM5.75 30C5.61739 30 5.49021 29.9473 5.39645 29.8536C5.30268 29.7598 5.25 29.6326 5.25 29.5V24H20.25V29.5C20.25 29.6326 20.1973 29.7598 20.1036 29.8536C20.0098 29.9473 19.8826 30 19.75 30H5.75Z" fill="#0F62F9"/>
<path d="M15.25 26H10.25C9.98478 26 9.73043 26.1054 9.54289 26.2929C9.35536 26.4804 9.25 26.7348 9.25 27C9.25 27.2652 9.35536 27.5196 9.54289 27.7071C9.73043 27.8946 9.98478 28 10.25 28H15.25C15.5152 28 15.7696 27.8946 15.9571 27.7071C16.1446 27.5196 16.25 27.2652 16.25 27C16.25 26.7348 16.1446 26.4804 15.9571 26.2929C15.7696 26.1054 15.5152 26 15.25 26Z" fill="#00E1F0"/>
<path d="M12.75 10.5C12.4848 10.5 12.2304 10.6054 12.0429 10.7929C11.8554 10.9804 11.75 11.2348 11.75 11.5V13H10.25C9.98478 13 9.73043 13.1054 9.54289 13.2929C9.35536 13.4804 9.25 13.7348 9.25 14C9.25 14.2652 9.35536 14.5196 9.54289 14.7071C9.73043 14.8946 9.98478 15 10.25 15H11.75V16.5C11.75 16.7652 11.8554 17.0196 12.0429 17.2071C12.2304 17.3946 12.4848 17.5 12.75 17.5C13.0152 17.5 13.2696 17.3946 13.4571 17.2071C13.6446 17.0196 13.75 16.7652 13.75 16.5V15H15.25C15.5152 15 15.7696 14.8946 15.9571 14.7071C16.1446 14.5196 16.25 14.2652 16.25 14C16.25 13.7348 16.1446 13.4804 15.9571 13.2929C15.7696 13.1054 15.5152 13 15.25 13H13.75V11.5C13.75 11.2348 13.6446 10.9804 13.4571 10.7929C13.2696 10.6054 13.0152 10.5 12.75 10.5Z" fill="#00E1F0"/>
</g>
<defs>
<clipPath id="clip0_25_408">
<rect width="32" height="32" fill="white"/>
</clipPath>
</defs>
</svg>
