<svg width="28" height="28" viewBox="0 0 28 28" fill="none" xmlns="http://www.w3.org/2000/svg">
<path fill-rule="evenodd" clip-rule="evenodd" d="M0.666992 14.02C0.666992 6.99615 6.28033 0.666656 14.027 0.666656C21.6003 0.666656 27.3337 6.87597 27.3337 13.98C27.3337 22.219 20.6137 27.3333 14.0003 27.3333C11.8137 27.3333 9.38699 26.7458 7.44033 25.5974C6.76033 25.1834 6.18699 24.8763 5.45366 25.1167L2.76033 25.9179C2.08033 26.1315 1.46699 25.5974 1.66699 24.8763L2.56033 21.8852C2.70699 21.4712 2.68033 21.0305 2.46699 20.6833C1.32033 18.5735 0.666992 16.2634 0.666992 14.02ZM12.267 14.02C12.267 14.9681 13.027 15.7292 13.9737 15.7426C14.9203 15.7426 15.6803 14.9681 15.6803 14.0334C15.6803 13.0853 14.9203 12.3241 13.9737 12.3241C13.0403 12.3108 12.267 13.0853 12.267 14.02ZM18.4137 14.0334C18.4137 14.9681 19.1737 15.7426 20.1203 15.7426C21.067 15.7426 21.827 14.9681 21.827 14.0334C21.827 13.0853 21.067 12.3241 20.1203 12.3241C19.1737 12.3241 18.4137 13.0853 18.4137 14.0334ZM7.82699 15.7426C6.89366 15.7426 6.12033 14.9681 6.12033 14.0334C6.12033 13.0853 6.88033 12.3241 7.82699 12.3241C8.77366 12.3241 9.53366 13.0853 9.53366 14.0334C9.53366 14.9681 8.77366 15.7293 7.82699 15.7426Z" fill="#7210FF"/>
</svg>
