<svg width="13" height="13" viewBox="0 0 13 13" fill="none" xmlns="http://www.w3.org/2000/svg">
<path d="M5.25724 1.47759C5.6723 0.283512 7.36101 0.28351 7.77607 1.47759L8.40642 3.29103C8.58953 3.81779 9.08112 4.17495 9.63868 4.18631L11.5582 4.22543C12.822 4.25119 13.3439 5.85724 12.3365 6.62098L10.8066 7.78087C10.3622 8.11779 10.1744 8.69568 10.3359 9.22947L10.8919 11.0671C11.258 12.2771 9.89176 13.2697 8.85411 12.5476L7.27823 11.451C6.82047 11.1325 6.21284 11.1325 5.75508 11.451L4.17921 12.5476C3.14155 13.2697 1.77535 12.2771 2.14142 11.0671L2.69737 9.22947C2.85886 8.69568 2.67109 8.11779 2.22669 7.78087L0.696801 6.62098C-0.310575 5.85725 0.211264 4.25119 1.47516 4.22543L3.39463 4.18631C3.9522 4.17495 4.44379 3.81779 4.62689 3.29103L5.25724 1.47759Z" fill="#FFC554"/>
</svg>
