<svg width="205" height="200" viewBox="0 0 205 200" fill="none" xmlns="http://www.w3.org/2000/svg">
<ellipse cx="104.97" cy="101.25" rx="77.8012" ry="78.75" fill="url(#paint0_linear_2741_3686)"/>
<ellipse cx="196.356" cy="31.25" rx="8.64458" ry="8.75" fill="url(#paint1_linear_2741_3686)"/>
<ellipse cx="20.9939" cy="11.25" rx="11.1145" ry="11.25" fill="url(#paint2_linear_2741_3686)"/>
<ellipse cx="9.8797" cy="147.5" rx="4.93976" ry="5" fill="url(#paint3_linear_2741_3686)"/>
<ellipse cx="180.301" cy="177.5" rx="2.46988" ry="2.5" fill="url(#paint4_linear_2741_3686)"/>
<ellipse cx="116.085" cy="5" rx="2.46988" ry="2.5" fill="url(#paint5_linear_2741_3686)"/>
<ellipse cx="67.9216" cy="196.25" rx="3.70482" ry="3.75" fill="url(#paint6_linear_2741_3686)"/>
<ellipse cx="134.608" cy="191.25" rx="1.23494" ry="1.25" fill="url(#paint7_linear_2741_3686)"/>
<ellipse cx="187.711" cy="122.5" rx="2.46988" ry="2.5" fill="url(#paint8_linear_2741_3686)"/>
<ellipse cx="1.23494" cy="83.75" rx="1.23494" ry="1.25" fill="url(#paint9_linear_2741_3686)"/>
<path d="M118.364 78.6415V74.4165C118.364 73.3061 117.444 72.3853 116.333 72.3853C115.223 72.3853 114.302 73.3061 114.302 74.4165V78.479H96.6977V74.4165C96.6977 73.3061 95.7769 72.3853 94.6665 72.3853C93.5561 72.3853 92.6352 73.3061 92.6352 74.4165V78.6415C85.3227 79.3186 81.7748 83.679 81.2331 90.1519C81.179 90.9373 81.829 91.5873 82.5873 91.5873H128.412C129.198 91.5873 129.848 90.9103 129.766 90.1519C129.225 83.679 125.677 79.3186 118.364 78.6415Z" fill="white"/>
<path d="M127.167 95.6499H83.8333C82.3437 95.6499 81.125 96.8687 81.125 98.3582V115.042C81.125 123.167 85.1875 128.583 94.6667 128.583H116.333C125.812 128.583 129.875 123.167 129.875 115.042V98.3582C129.875 96.8687 128.656 95.6499 127.167 95.6499ZM97.9438 118.319C97.6729 118.562 97.375 118.752 97.05 118.887C96.725 119.023 96.3729 119.104 96.0208 119.104C95.6687 119.104 95.3167 119.023 94.9917 118.887C94.6667 118.752 94.3687 118.562 94.0979 118.319C93.6104 117.804 93.3125 117.1 93.3125 116.396C93.3125 115.692 93.6104 114.987 94.0979 114.473C94.3687 114.229 94.6667 114.039 94.9917 113.904C95.6417 113.633 96.4 113.633 97.05 113.904C97.375 114.039 97.6729 114.229 97.9438 114.473C98.4312 114.987 98.7292 115.692 98.7292 116.396C98.7292 117.1 98.4312 117.804 97.9438 118.319ZM98.5125 107.946C98.3771 108.271 98.1875 108.569 97.9438 108.839C97.6729 109.083 97.375 109.273 97.05 109.408C96.725 109.544 96.3729 109.625 96.0208 109.625C95.6687 109.625 95.3167 109.544 94.9917 109.408C94.6667 109.273 94.3687 109.083 94.0979 108.839C93.8542 108.569 93.6646 108.271 93.5292 107.946C93.3937 107.621 93.3125 107.269 93.3125 106.917C93.3125 106.564 93.3937 106.212 93.5292 105.887C93.6646 105.562 93.8542 105.264 94.0979 104.994C94.3687 104.75 94.6667 104.56 94.9917 104.425C95.6417 104.154 96.4 104.154 97.05 104.425C97.375 104.56 97.6729 104.75 97.9438 104.994C98.1875 105.264 98.3771 105.562 98.5125 105.887C98.6479 106.212 98.7292 106.564 98.7292 106.917C98.7292 107.269 98.6479 107.621 98.5125 107.946ZM107.423 108.839C107.152 109.083 106.854 109.273 106.529 109.408C106.204 109.544 105.852 109.625 105.5 109.625C105.148 109.625 104.796 109.544 104.471 109.408C104.146 109.273 103.848 109.083 103.577 108.839C103.09 108.325 102.792 107.621 102.792 106.917C102.792 106.212 103.09 105.508 103.577 104.994C103.848 104.75 104.146 104.56 104.471 104.425C105.121 104.127 105.879 104.127 106.529 104.425C106.854 104.56 107.152 104.75 107.423 104.994C107.91 105.508 108.208 106.212 108.208 106.917C108.208 107.621 107.91 108.325 107.423 108.839Z" fill="white"/>
<defs>
<linearGradient id="paint0_linear_2741_3686" x1="27.1685" y1="101.25" x2="182.771" y2="101.25" gradientUnits="userSpaceOnUse">
<stop stop-color="#4776E6"/>
<stop offset="1" stop-color="#8E54E9"/>
</linearGradient>
<linearGradient id="paint1_linear_2741_3686" x1="187.711" y1="31.25" x2="205" y2="31.25" gradientUnits="userSpaceOnUse">
<stop stop-color="#4776E6"/>
<stop offset="1" stop-color="#8E54E9"/>
</linearGradient>
<linearGradient id="paint2_linear_2741_3686" x1="9.87939" y1="11.25" x2="32.1083" y2="11.25" gradientUnits="userSpaceOnUse">
<stop stop-color="#4776E6"/>
<stop offset="1" stop-color="#8E54E9"/>
</linearGradient>
<linearGradient id="paint3_linear_2741_3686" x1="4.93994" y1="147.5" x2="14.8195" y2="147.5" gradientUnits="userSpaceOnUse">
<stop stop-color="#4776E6"/>
<stop offset="1" stop-color="#8E54E9"/>
</linearGradient>
<linearGradient id="paint4_linear_2741_3686" x1="177.832" y1="177.5" x2="182.771" y2="177.5" gradientUnits="userSpaceOnUse">
<stop stop-color="#4776E6"/>
<stop offset="1" stop-color="#8E54E9"/>
</linearGradient>
<linearGradient id="paint5_linear_2741_3686" x1="113.615" y1="5" x2="118.555" y2="5" gradientUnits="userSpaceOnUse">
<stop stop-color="#4776E6"/>
<stop offset="1" stop-color="#8E54E9"/>
</linearGradient>
<linearGradient id="paint6_linear_2741_3686" x1="64.2168" y1="196.25" x2="71.6264" y2="196.25" gradientUnits="userSpaceOnUse">
<stop stop-color="#4776E6"/>
<stop offset="1" stop-color="#8E54E9"/>
</linearGradient>
<linearGradient id="paint7_linear_2741_3686" x1="133.374" y1="191.25" x2="135.843" y2="191.25" gradientUnits="userSpaceOnUse">
<stop stop-color="#4776E6"/>
<stop offset="1" stop-color="#8E54E9"/>
</linearGradient>
<linearGradient id="paint8_linear_2741_3686" x1="185.241" y1="122.5" x2="190.181" y2="122.5" gradientUnits="userSpaceOnUse">
<stop stop-color="#4776E6"/>
<stop offset="1" stop-color="#8E54E9"/>
</linearGradient>
<linearGradient id="paint9_linear_2741_3686" x1="0" y1="83.75" x2="2.46988" y2="83.75" gradientUnits="userSpaceOnUse">
<stop stop-color="#4776E6"/>
<stop offset="1" stop-color="#8E54E9"/>
</linearGradient>
</defs>
</svg>
