<svg width="20" height="20" viewBox="0 0 20 20" fill="none" xmlns="http://www.w3.org/2000/svg">
<path d="M10.8334 7.5H5.83337" stroke="#000B33" stroke-linecap="round" stroke-linejoin="round"/>
<path d="M18.3333 9.14159V10.8583C18.3333 11.3166 17.9667 11.6916 17.5 11.7083H15.8667C14.9667 11.7083 14.1417 11.0499 14.0667 10.1499C14.0167 9.62494 14.2167 9.13327 14.5667 8.79161C14.875 8.47494 15.3 8.29163 15.7667 8.29163H17.5C17.9667 8.30829 18.3333 8.68326 18.3333 9.14159Z" stroke="#000B33" stroke-linecap="round" stroke-linejoin="round"/>
<path d="M14.5666 8.79162C14.2166 9.13328 14.0166 9.62495 14.0666 10.15C14.1416 11.05 14.9666 11.7083 15.8666 11.7083H17.5V12.9166C17.5 15.4166 15.8333 17.0833 13.3333 17.0833H5.83329C3.33329 17.0833 1.66663 15.4166 1.66663 12.9166V7.08329C1.66663 4.81663 3.03329 3.23329 5.15829 2.96662C5.37496 2.93329 5.59996 2.91663 5.83329 2.91663H13.3333C13.55 2.91663 13.7583 2.92495 13.9583 2.95828C16.1083 3.20828 17.5 4.79996 17.5 7.08329V8.29164H15.7666C15.2999 8.29164 14.8749 8.47495 14.5666 8.79162Z" stroke="#000B33" stroke-linecap="round" stroke-linejoin="round"/>
</svg>
