<svg width="30" height="30" viewBox="0 0 30 30" fill="none" xmlns="http://www.w3.org/2000/svg">
<g clip-path="url(#clip0_2789_3043)">
<path d="M21.84 17.9775C21.4688 17.7913 19.6425 16.8938 19.3025 16.7688C18.9613 16.645 18.7138 16.5838 18.465 16.9563C18.2188 17.3275 17.5063 18.1638 17.29 18.4113C17.0738 18.66 16.8563 18.69 16.485 18.505C16.1138 18.3175 14.9163 17.9263 13.4975 16.6613C12.3938 15.6763 11.6475 14.46 11.4313 14.0875C11.215 13.7163 11.4088 13.515 11.5938 13.33C11.7613 13.1638 11.9663 12.8963 12.1513 12.68C12.3363 12.4638 12.3988 12.3075 12.5238 12.0588C12.6475 11.8113 12.5863 11.595 12.4925 11.4088C12.3988 11.2225 11.6563 9.3938 11.3475 8.65004C11.045 7.92629 10.7388 8.02504 10.5113 8.01254C10.2739 8.00317 10.0364 7.999 9.79879 8.00004C9.55129 8.00004 9.14879 8.09254 8.80879 8.46504C8.46879 8.83629 7.50879 9.73504 7.50879 11.5638C7.50879 13.3913 8.84004 15.1575 9.02504 15.4063C9.21004 15.655 11.645 19.4063 15.3713 21.015C16.2575 21.3975 16.9488 21.6263 17.4888 21.7963C18.3788 22.08 19.1888 22.04 19.8275 21.9438C20.5413 21.8375 22.025 21.045 22.335 20.1775C22.645 19.31 22.645 18.5663 22.5513 18.4113C22.4588 18.2563 22.2125 18.1638 21.84 17.9775ZM15.0625 27.2313H15.0575C12.8447 27.2315 10.6726 26.6365 8.76879 25.5088L8.31754 25.2413L3.64129 26.4688L4.88879 21.9088L4.59504 21.4413C3.35809 19.4716 2.70372 17.1922 2.70754 14.8663C2.70879 8.05379 8.25254 2.51129 15.0675 2.51129C18.3675 2.51129 21.47 3.79879 23.8025 6.13379C24.9537 7.27936 25.866 8.64196 26.4868 10.1426C27.1075 11.6433 27.4243 13.2523 27.4188 14.8763C27.415 21.6888 21.8725 27.2313 15.0625 27.2313ZM25.5788 4.36004C24.2013 2.97398 22.5626 1.87493 20.7574 1.12653C18.9523 0.378127 17.0167 -0.00475654 15.0625 4.45987e-05C6.86879 4.45987e-05 0.200039 6.66879 0.196289 14.865C0.196289 17.485 0.880039 20.0425 2.18129 22.2963L0.0712891 30L7.95254 27.9325C10.1324 29.119 12.5745 29.7413 15.0563 29.7425H15.0625C23.255 29.7425 29.925 23.0738 29.9288 14.8763C29.9349 12.9229 29.5536 10.9876 28.8069 9.18255C28.0603 7.37745 26.963 5.73834 25.5788 4.36004Z" fill="white"/>
</g>
<defs>
<clipPath id="clip0_2789_3043">
<rect width="30" height="30" fill="white"/>
</clipPath>
</defs>
</svg>
